<?xml version="1.0" encoding="UTF-8"?>
<svg width="192px" height="192px" viewBox="0 0 192 192" version="1.1" xmlns="http://www.w3.org/2000/svg" xmlns:xlink="http://www.w3.org/1999/xlink">
    <!-- Generator: Sketch 45.1 (43504) - http://www.bohemiancoding.com/sketch -->
    <title>Cydia@2x</title>
    <desc>Created with Sketch.</desc>
    <defs>
        <path d="M24.588341,1.51218774 L2.7871059,12.655009 L2.7871059,12.655009 C1.11492799,13.5096752 0.0626559794,15.2292518 0.0626559794,17.107185 L0.0626559794,49.5794044 L24.5709486,62.1058289 L24.5709486,62.1058289 C26.0092028,62.8409344 27.7139806,62.8359718 29.1479306,62.0925053 L53.4713733,49.4814202 L53.6684057,17.1293497 L53.6684057,17.1293497 C53.6799133,15.2398355 52.6252616,13.5052349 50.9424275,12.6458947 L29.1378202,1.51135962 L29.1378202,1.51135962 C27.709016,0.78173997 26.0168794,0.78204798 24.588341,1.51218774 Z" id="path-1"></path>
        <path d="M24.588341,1.51218774 L2.7871059,12.655009 L2.7871059,12.655009 C1.11492799,13.5096752 0.0626559794,15.2292518 0.0626559794,17.107185 L0.0626559794,49.5794044 L24.5709486,62.1058289 L24.5709486,62.1058289 C26.0092028,62.8409344 27.7139806,62.8359718 29.1479306,62.0925053 L53.4713733,49.4814202 L53.6684057,17.1293497 L53.6684057,17.1293497 C53.6799133,15.2398355 52.6252616,13.5052349 50.9424275,12.6458947 L29.1378202,1.51135962 L29.1378202,1.51135962 C27.709016,0.78173997 26.0168794,0.78204798 24.588341,1.51218774 Z" id="path-3"></path>
        <path d="M24.588341,1.51218774 L2.7871059,12.655009 L2.7871059,12.655009 C1.11492799,13.5096752 0.0626559794,15.2292518 0.0626559794,17.107185 L0.0626559794,49.5794044 L24.5709486,62.1058289 L24.5709486,62.1058289 C26.0092028,62.8409344 27.7139806,62.8359718 29.1479306,62.0925053 L53.4713733,49.4814202 L53.6684057,17.1293497 L53.6684057,17.1293497 C53.6799133,15.2398355 52.6252616,13.5052349 50.9424275,12.6458947 L29.1378202,1.51135962 L29.1378202,1.51135962 C27.709016,0.78173997 26.0168794,0.78204798 24.588341,1.51218774 Z" id="path-5"></path>
    </defs>
    <g id="iOS" stroke="none" stroke-width="1" fill="none" fill-rule="evenodd">
        <g id="Cydia">
            <g id="Group-3" transform="translate(10.000000, 28.000000)">
                <path d="M87.9425439,17.4349731 L28.4412089,47.6723901 L28.4412089,103.146864 C28.4412089,105.908487 30.437939,109.161923 32.9013058,110.413758 L83.482447,136.118107 C85.9456905,137.369879 89.9249908,137.362684 92.3828234,136.095663 L142.577971,110.219906 C145.03027,108.955739 147.036014,105.696798 147.058071,102.922736 L147.497369,47.6723901 L87.9425439,17.4349731 Z" id="Combined-Shape" fill="#D3B69A"></path>
                <path d="M61.7435647,4.26396639 L87.9266289,17.5696885 L28.6381081,47.6989576 L2.45504397,34.3932354 C-0.00156668623,33.1448338 -0.00485762566,31.1153766 2.45627522,29.8646769 L52.8322456,4.26459209 C55.2989323,3.01107003 59.2831119,3.01361228 61.7435647,4.26396639 Z M114.256435,4.26396639 C116.716888,3.01361228 120.701068,3.01107003 123.167754,4.26459209 L173.543725,29.8646769 C176.004858,31.1153766 176.001567,33.1448338 173.544956,34.3932354 L147.361892,47.6989576 L88.0733711,17.5696885 L114.256435,4.26396639 Z" id="Combined-Shape" fill="#FCECDC"></path>
                <g id="Combined-Shape-Copy-6" transform="translate(61.000000, 0.000000)">
                    <mask id="mask-2" fill="white">
                        <use xlink:href="#path-1"></use>
                    </mask>
                    <use id="Mask" fill="#FFFFFF" xlink:href="#path-1"></use>
                    <polygon fill="#D8D8D8" mask="url(#mask-2)" points="26.862869 28.4278345 26.862869 63.2772514 53.4713733 49.4814202 53.6871749 14.0475016"></polygon>
                    <polygon id="Combined-Shape-Copy-7" fill="#ECECEC" mask="url(#mask-2)" points="26.862869 28.4278345 26.862869 63.2772514 -2 49.4814202 -1.78419832 14.0475016"></polygon>
                </g>
                <g id="Combined-Shape-Copy-8" transform="translate(35.000000, 28.000000)">
                    <mask id="mask-4" fill="white">
                        <use xlink:href="#path-3"></use>
                    </mask>
                    <use id="Mask" fill="#FFFFFF" xlink:href="#path-3"></use>
                    <polygon id="Combined-Shape-Copy-6" fill="#D8D8D8" mask="url(#mask-4)" points="26.862869 28.4278345 26.862869 63.2772514 53.4713733 49.4814202 53.6871749 14.0475016"></polygon>
                    <polygon id="Combined-Shape-Copy-7" fill="#ECECEC" mask="url(#mask-4)" points="26.862869 28.4278345 26.862869 63.2772514 -2 49.4814202 -1.78419832 14.0475016"></polygon>
                </g>
                <g id="Combined-Shape-Copy-9" transform="translate(88.000000, 28.000000)">
                    <mask id="mask-6" fill="white">
                        <use xlink:href="#path-5"></use>
                    </mask>
                    <use id="Mask" fill="#FFFFFF" xlink:href="#path-5"></use>
                    <polygon id="Combined-Shape-Copy-6" fill="#D8D8D8" mask="url(#mask-6)" points="26.862869 28.4278345 26.862869 63.2772514 53.4713733 49.4814202 53.6871749 14.0475016"></polygon>
                    <polygon id="Combined-Shape-Copy-7" fill="#ECECEC" mask="url(#mask-6)" points="26.862869 28.4278345 26.862869 63.2772514 -2 49.4814202 -1.78419832 14.0475016"></polygon>
                </g>
                <path d="M61.7435647,90.7949912 C59.2831119,92.0453453 55.2989323,92.0478875 52.8322456,90.7943655 L2.45627522,65.1942806 C-0.00485762566,63.9435809 -0.00156668623,61.9141237 2.45504397,60.6657221 L28.6381081,47.36 L87.9266289,77.489269 L61.7435647,90.7949912 Z" id="Combined-Shape-Copy-2" fill="#FCECDC"></path>
                <path d="M114.256435,90.7949912 C116.716888,92.0453453 120.701068,92.0478875 123.167754,90.7943655 L173.543725,65.1942806 C176.004858,63.9435809 176.001567,61.9141237 173.544956,60.6657221 L147.361892,47.36 L88.0733711,77.489269 L114.256435,90.7949912 Z" id="Combined-Shape-Copy-3" fill="#FCECDC"></path>
            </g>
        </g>
    </g>
</svg>