<?xml version="1.0" encoding="UTF-8"?>
<svg width="192px" height="192px" viewBox="0 0 192 192" version="1.1" xmlns="http://www.w3.org/2000/svg" xmlns:xlink="http://www.w3.org/1999/xlink">
    <!-- Generator: Sketch 43 (38999) - http://www.bohemiancoding.com/sketch -->
    <title>play_store@2x</title>
    <desc>Created with Sketch.</desc>
    <defs></defs>
    <g id="Android" stroke="none" stroke-width="1" fill="none" fill-rule="evenodd">
        <g id="play_store">
            <path d="M170.749161,92.3590043 C175.59196,95.0148125 175.61493,99.3447786 170.776119,102.043834 L43.7417056,172.90276 C38.9137949,175.595736 35,173.294166 35,167.778544 L35,27.9139688 C35,22.3909665 38.9216534,20.0643371 43.7686643,22.7224548 L170.749161,92.3590043 Z" id="Mask" fill="#9ABEFF"></path>
            <path d="M172.974927,94.0184682 C175.102525,96.2494432 174.838644,99.0008982 172.16866,101.120537 L140.835366,118.744581 L134.511868,122.271785 L35.1881158,25.945973 C36.0237276,21.8750889 39.5448439,20.4060969 43.7686643,22.7224548 L115.614795,62.1231245 L172.974927,94.0184682 Z" id="Combined-Shape" fill="#98DC9A"></path>
            <path d="M173.706419,94.9485943 C175.213565,97.3407267 174.241937,100.110625 170.776119,102.043834 L43.7417056,172.90276 C39.4627889,175.289511 35.9019151,173.753019 35.1474118,169.532834 L134.684628,73 L173.706419,94.9485943 L173.706419,94.9485943 Z" id="Combined-Shape" fill="#FF837D"></path>
            <path d="M135.264498,121.851973 L170.776119,102.043834 C175.61493,99.3447786 175.59196,95.0148125 170.749161,92.3590043 L135.058487,72.7861137 L108.795667,97.3494288 L135.264498,121.851973 Z" id="Combined-Shape" fill="#F9DE81"></path>
        </g>
    </g>
</svg>