<?xml version="1.0" encoding="utf-8"?>
<!-- Generator: Adobe Illustrator 26.1.0, SVG Export Plug-In . SVG Version: 6.00 Build 0)  -->
<svg version="1.1" id="Layer_1" xmlns="http://www.w3.org/2000/svg" xmlns:xlink="http://www.w3.org/1999/xlink" x="0px" y="0px"
	 width="399px" height="395px" viewBox="0 0 399 395" style="enable-background:new 0 0 399 395;" xml:space="preserve">
<style type="text/css">
	.st0{fill-rule:evenodd;clip-rule:evenodd;fill:#222222;}
	.st1{fill-rule:evenodd;clip-rule:evenodd;fill:#4A4A4A;}
	.st2{fill-rule:evenodd;clip-rule:evenodd;fill:#9ABEFF;}
	.st3{fill-rule:evenodd;clip-rule:evenodd;fill:#FFFFFF;}
	.st4{fill:#FF837D;}
	.st5{fill-rule:evenodd;clip-rule:evenodd;fill:#FF837D;}
	.st6{fill-rule:evenodd;clip-rule:evenodd;fill:#56595B;}
	.st7{fill-rule:evenodd;clip-rule:evenodd;fill:#B1B5BD;}
	.st8{fill-rule:evenodd;clip-rule:evenodd;fill:#98DC9A;}
	.st9{fill-rule:evenodd;clip-rule:evenodd;fill:#BA6561;}
	.st10{filter:url(#Adobe_OpacityMaskFilter);}
	.st11{mask:url(#mask-2_00000094586266322043756910000004459507974348881306_);fill-rule:evenodd;clip-rule:evenodd;fill:#B1B5BD;}
	.st12{fill:#FFFFFF;}
	.st13{filter:url(#Adobe_OpacityMaskFilter_00000058559884444045990850000012756975768094164132_);}
	
		.st14{mask:url(#mask-4_00000099637819688404001730000010661101537875651724_);fill-rule:evenodd;clip-rule:evenodd;fill-opacity:0.25;}
	.st15{fill-rule:evenodd;clip-rule:evenodd;fill:#728DBE;}
	.st16{fill-rule:evenodd;clip-rule:evenodd;fill:#F9DE81;}
	.st17{filter:url(#Adobe_OpacityMaskFilter_00000164502173948129302130000014409009111769898141_);}
	.st18{mask:url(#mask-6_00000045577039285029312920000008688962155047333036_);}
	.st19{fill:none;stroke:#979797;stroke-width:10;stroke-linecap:square;}
	.st20{fill:none;stroke:#000000;stroke-width:10;stroke-linecap:round;}
</style>
<g id="Page-1">
	<g id="phone_cut">
		<path id="Rectangle-3" class="st0" d="M35,0h329c19.3,0,35,15.7,35,35v359.5H0V35C0,15.7,15.7,0,35,0z"/>
		<path id="Path" class="st1" d="M111,28v12c0,7.7,6.3,14,14,14h148c7.7,0,14-6.3,14-14V28c0-8.3,6.7-15,15-15h60
			c13.8,0,25,11.2,25,25v356.5H12V38c0-13.8,11.2-25,25-25h59C104.3,13,111,19.7,111,28z"/>
		<g id="Group-6" transform="translate(49.000000, 86.000000)">
			<g id="Group-2" transform="translate(0.000000, 83.000000)">
				<circle id="Oval-106" class="st2" cx="24.5" cy="24.5" r="24.5"/>
				<polygon id="Shape" class="st3" points="20,20 20,20 20.1,20 20.1,19.9 20.1,19.9 20.1,19.9 20.2,19.9 20.2,19.9 20.3,19.9 
					20.3,19.9 20.3,19.9 20.3,19.8 20.4,19.8 20.4,19.8 20.5,19.8 20.5,19.8 20.6,19.8 20.6,19.8 20.6,19.8 20.6,19.7 20.7,19.7 
					20.7,19.7 20.8,19.7 20.8,19.7 20.8,19.7 20.8,19.7 20.9,19.7 20.9,19.6 21,19.6 21,19.6 21,19.6 21,19.6 21.1,19.6 21.1,19.6 
					21.2,19.6 21.2,19.6 21.2,19.6 21.2,19.5 21.3,19.5 21.3,19.5 21.4,19.5 21.4,19.5 21.4,19.5 21.4,19.5 21.5,19.5 21.5,19.4 
					21.6,19.4 21.6,19.4 21.6,19.4 21.6,19.4 21.7,19.4 21.7,19.4 21.8,19.4 21.8,19.3 21.8,19.3 21.8,19.3 21.9,19.3 21.9,19.3 
					22,19.3 22,19.3 22,19.3 22,19.2 22.1,19.2 22.1,19.2 22.1,19.2 22.1,19.2 22.2,19.2 22.2,19.2 22.3,19.2 22.3,19.1 22.4,19.1 
					22.4,19.1 22.4,19.1 22.4,19.1 22.5,19.1 22.5,19.1 22.6,19.1 22.6,19.1 22.6,19.1 22.6,19 22.7,19 22.7,19 22.7,19 22.7,19 
					22.8,19 22.8,19 22.9,19 22.9,18.9 22.9,18.9 22.9,18.9 23,18.9 23,18.9 23.1,18.9 23.1,18.9 23.1,18.9 23.1,18.8 23.2,18.8 
					23.2,18.8 23.3,18.8 23.3,18.8 23.3,18.8 23.3,18.8 23.4,18.8 23.4,18.7 23.5,18.7 23.5,18.7 23.5,18.7 23.5,18.7 23.6,18.7 
					23.6,18.7 23.7,18.7 23.7,18.6 23.7,18.6 23.7,18.6 23.8,18.6 23.8,18.6 23.9,18.6 23.9,18.6 23.9,18.6 23.9,18.6 24,18.6 
					24,18.5 24.1,18.5 24.1,18.5 24.1,18.5 24.1,18.5 24.2,18.5 24.2,18.5 24.2,18.5 24.2,18.4 24.3,18.4 24.3,18.4 24.4,18.4 
					24.4,18.4 24.4,18.4 24.4,18.4 24.5,18.4 24.5,18.3 24.6,18.3 24.6,18.3 24.6,18.3 24.6,18.3 24.7,18.3 24.7,18.3 24.8,18.3 
					24.8,18.2 24.8,18.2 24.8,18.2 24.9,18.2 24.9,18.2 25,18.2 25,18.2 25,18.2 25,18.1 25.1,18.1 25.1,18.1 25.2,18.1 25.2,18.1 
					25.2,18.1 25.2,18.1 25.3,18.1 25.3,18.1 25.4,18.1 25.4,18 25.4,18 25.4,18 25.5,18 25.5,18 25.6,18 25.6,18 25.6,18 
					25.6,17.9 25.7,17.9 25.7,17.9 25.7,17.9 25.7,17.9 25.8,17.9 25.8,17.9 25.9,17.9 25.9,17.8 26,17.8 26,17.8 26,17.8 26,17.8 
					26.1,17.8 26.1,17.8 26.1,17.8 26.1,17.7 26.2,17.7 26.2,17.7 26.3,17.7 26.3,17.7 26.3,17.7 26.3,17.7 26.4,17.7 26.4,17.6 
					26.5,17.6 26.5,17.6 26.6,17.6 26.6,17.6 26.6,17.6 26.6,17.6 26.7,17.6 26.7,17.6 26.7,17.6 26.7,17.5 26.8,17.5 26.8,17.5 
					26.9,17.5 26.9,17.5 26.9,17.5 26.9,17.5 27,17.5 27,17.4 27.1,17.4 27.1,17.4 27.1,17.4 27.1,17.4 27.2,17.4 27.2,17.4 
					27.3,17.4 27.3,17.3 27.3,17.3 27.3,17.3 27.4,17.3 27.4,17.3 27.5,17.3 27.5,17.3 27.5,17.3 27.5,17.2 27.6,17.2 27.6,17.2 
					27.7,17.2 27.7,17.2 27.7,17.2 27.7,17.2 27.8,17.2 27.8,17.1 27.9,17.1 27.9,17.1 28,17.1 28,17.1 28,17.1 28,17.1 28.1,17.1 
					28.1,17.1 28.1,17.1 28.1,17 28.2,17 28.2,17 28.3,17 28.3,17 28.4,17 28.4,17 28.4,17 28.4,16.9 28.5,16.9 28.5,16.9 
					28.5,16.9 28.5,16.9 28.6,16.9 28.6,16.9 28.7,16.9 28.7,16.8 28.8,16.8 28.8,16.8 28.8,16.8 28.8,16.8 28.9,16.8 28.9,16.8 
					29,16.8 29,16.7 29,16.7 29,16.7 29.1,16.7 29.1,16.7 29.2,16.7 29.2,16.7 29.2,16.7 29.2,16.6 29.3,16.6 29.3,16.6 29.4,16.6 
					29.4,16.6 29.5,16.6 29.5,16.6 29.5,16.6 29.5,16.6 29.6,16.6 29.6,16.5 29.6,16.5 29.6,16.5 29.7,16.5 29.7,16.5 29.8,16.5 
					29.8,16.5 29.9,16.5 29.9,16.4 29.9,16.4 29.9,16.4 30,16.4 30,16.4 30.1,16.4 30.1,16.4 30.1,16.4 30.1,16.3 30.2,16.3 
					30.2,16.3 30.3,16.3 30.3,16.3 30.4,16.3 30.4,16.3 30.5,16.3 30.5,16.2 30.5,16.2 30.5,16.2 30.6,16.2 30.6,16.2 30.7,16.2 
					30.7,16.2 30.8,16.2 30.8,16.2 30.9,16.2 30.9,16.1 31,16.1 31,16.1 31,16.1 31,16.1 31.1,16.1 31.1,16.1 31.3,16.1 31.3,16 
					31.4,16 31.4,16 31.5,16 31.5,16 31.7,16 31.7,16 32.2,16 32.2,16 32.3,16 32.3,16 32.4,16 32.4,16 32.5,16 32.5,16.1 
					32.5,16.1 32.5,16.1 32.6,16.1 32.6,16.1 32.6,16.1 32.6,16.1 32.7,16.1 32.7,16.2 32.7,16.2 32.7,16.2 32.7,16.2 32.7,16.2 
					32.8,16.2 32.8,16.2 32.8,16.2 32.8,16.2 32.8,16.2 32.8,16.3 32.8,16.3 32.8,16.3 32.9,16.3 32.9,16.3 32.9,16.3 32.9,16.4 
					32.9,16.4 32.9,16.4 32.9,16.4 32.9,16.5 33,16.5 33,16.5 33,16.5 33,16.6 33,16.6 33,16.7 33,16.7 33,16.8 33,16.8 33,17.4 
					33,17.4 33,17.6 33,17.6 33,17.7 33,17.7 33,17.8 33,17.8 33,18 32.9,18 32.9,18.1 32.9,18.1 32.9,18.2 32.9,18.2 32.9,18.3 
					32.9,18.3 32.9,18.4 32.8,18.4 32.8,18.5 32.8,18.5 32.8,18.5 32.8,18.5 32.8,18.6 32.8,18.6 32.8,18.7 32.7,18.7 32.7,18.8 
					32.7,18.8 32.7,18.9 32.7,18.9 32.7,19 32.7,19 32.7,19.1 32.6,19.1 32.6,19.1 32.6,19.1 32.6,19.2 32.6,19.2 32.6,19.3 
					32.6,19.3 32.6,19.4 32.5,19.4 32.5,19.5 32.5,19.5 32.5,19.5 32.5,19.5 32.5,19.6 32.5,19.6 32.5,19.7 32.5,19.7 32.5,19.8 
					32.4,19.8 32.4,19.8 32.4,19.8 32.4,19.9 32.4,19.9 32.4,20 32.4,20 32.4,20.1 32.3,20.1 32.3,20.1 32.3,20.1 32.3,20.2 
					32.3,20.2 32.3,20.3 32.3,20.3 32.3,20.4 32.2,20.4 32.2,20.5 32.2,20.5 32.2,20.5 32.2,20.5 32.2,20.6 32.2,20.6 32.2,20.7 
					32.1,20.7 32.1,20.7 32.1,20.7 32.1,20.8 32.1,20.8 32.1,20.9 32.1,20.9 32.1,21 32,21 32,21 32,21 32,21.1 32,21.1 32,21.2 
					32,21.2 32,21.3 32,21.3 32,21.3 31.9,21.3 31.9,21.4 31.9,21.4 31.9,21.5 31.9,21.5 31.9,21.5 31.9,21.5 31.9,21.6 31.8,21.6 
					31.8,21.7 31.8,21.7 31.8,21.8 31.8,21.8 31.8,21.8 31.8,21.8 31.8,21.9 31.7,21.9 31.7,22 31.7,22 31.7,22 31.7,22 31.7,22.1 
					31.7,22.1 31.7,22.2 31.6,22.2 31.6,22.3 31.6,22.3 31.6,22.3 31.6,22.3 31.6,22.4 31.6,22.4 31.6,22.5 31.5,22.5 31.5,22.5 
					31.5,22.5 31.5,22.6 31.5,22.6 31.5,22.7 31.5,22.7 31.5,22.8 31.5,22.8 31.5,22.8 31.4,22.8 31.4,22.9 31.4,22.9 31.4,23 
					31.4,23 31.4,23 31.4,23 31.4,23.1 31.3,23.1 31.3,23.2 31.3,23.2 31.3,23.3 31.3,23.3 31.3,23.3 31.3,23.3 31.3,23.4 
					31.2,23.4 31.2,23.5 31.2,23.5 31.2,23.5 31.2,23.5 31.2,23.6 31.2,23.6 31.2,23.7 31.1,23.7 31.1,23.8 31.1,23.8 31.1,23.8 
					31.1,23.8 31.1,23.9 31.1,23.9 31.1,24 31,24 31,24 31,24 31,24.1 31,24.1 31,24.2 31,24.2 31,24.2 31,24.2 31,24.3 30.9,24.3 
					30.9,24.4 30.9,24.4 30.9,24.4 30.9,24.4 30.9,24.5 30.9,24.5 30.9,24.6 30.8,24.6 30.8,24.7 30.8,24.7 30.8,24.7 30.8,24.7 
					30.8,24.8 30.8,24.8 30.8,24.9 30.7,24.9 30.7,24.9 30.7,24.9 30.7,25 30.7,25 30.7,25.1 30.7,25.1 30.7,25.1 30.6,25.1 
					30.6,25.2 30.6,25.2 30.6,25.3 30.6,25.3 30.6,25.4 30.6,25.4 30.6,25.4 30.5,25.4 30.5,25.5 30.5,25.5 30.5,25.5 30.5,25.5 
					30.5,25.6 30.5,25.6 30.5,25.7 30.5,25.7 30.5,25.8 30.4,25.8 30.4,25.8 30.4,25.8 30.4,25.9 30.4,25.9 30.4,26 30.4,26 
					30.4,26 30.3,26 30.3,26.1 30.3,26.1 30.3,26.2 30.3,26.2 30.3,26.2 30.3,26.2 30.3,26.3 30.2,26.3 30.2,26.4 30.2,26.4 
					30.2,26.4 30.2,26.4 30.2,26.5 30.2,26.5 30.2,26.6 30.1,26.6 30.1,26.6 30.1,26.6 30.1,26.7 30.1,26.7 30.1,26.8 30.1,26.8 
					30.1,26.9 30,26.9 30,26.9 30,26.9 30,27 30,27 30,27 30,27 30,27.1 30,27.1 30,27.2 29.9,27.2 29.9,27.3 29.9,27.3 29.9,27.3 
					29.9,27.3 29.9,27.4 29.9,27.4 29.9,27.4 29.8,27.4 29.8,27.5 29.8,27.5 29.8,27.6 29.8,27.6 29.8,27.7 29.8,27.7 29.8,27.7 
					29.7,27.7 29.7,27.8 29.7,27.8 29.7,27.8 29.7,27.8 29.7,27.9 29.7,27.9 29.7,28 29.6,28 29.6,28.1 29.6,28.1 29.6,28.1 
					29.6,28.1 29.6,28.2 29.6,28.2 29.6,28.3 29.5,28.3 29.5,28.3 29.5,28.3 29.5,28.4 29.5,28.4 29.5,28.4 29.5,28.4 29.5,28.5 
					29.5,28.5 29.5,28.6 29.4,28.6 29.4,28.7 29.4,28.7 29.4,28.7 29.4,28.7 29.4,28.8 29.4,28.8 29.4,28.8 29.3,28.8 29.3,28.9 
					29.3,28.9 29.3,29 29.3,29 29.3,29 29.3,29 29.3,29.1 29.2,29.1 29.2,29.2 29.2,29.2 29.2,29.3 29.2,29.3 29.2,29.3 29.2,29.3 
					29.2,29.4 29.1,29.4 29.1,29.4 29.1,29.4 29.1,29.5 29.1,29.5 29.1,29.6 29.1,29.6 29.1,29.7 29,29.7 29,29.7 29,29.7 29,29.8 
					29,29.8 29,29.8 29,29.8 29,29.9 29,29.9 29,30 28.9,30 28.9,30.1 28.9,30.1 28.9,30.1 28.9,30.1 28.9,30.2 28.9,30.2 
					28.9,30.3 28.8,30.3 28.8,30.3 28.8,30.3 28.8,30.4 28.8,30.4 28.8,30.5 28.8,30.5 28.8,30.6 28.7,30.6 28.7,30.6 28.7,30.6 
					28.7,30.7 28.7,30.7 28.7,30.8 28.7,30.8 28.7,30.8 28.6,30.8 28.6,30.9 28.6,30.9 28.6,31 28.6,31 28.6,31 28.6,31 28.6,31.1 
					28.5,31.1 28.5,31.2 28.5,31.2 28.5,31.3 28.5,31.3 28.5,31.3 28.5,31.3 28.5,31.4 28.5,31.4 28.5,31.5 28.4,31.5 28.4,31.5 
					28.4,31.5 28.4,31.6 28.4,31.6 28.4,31.7 28.4,31.7 28.4,31.7 28.3,31.7 28.3,31.8 28.3,31.8 28.3,31.9 28.3,31.9 28.3,31.9 
					28.3,31.9 28.3,32 28.2,32 28.2,32.1 28.2,32.1 28.2,32.2 28.2,32.2 28.2,32.2 28.2,32.2 28.2,32.3 28.1,32.3 28.1,32.4 
					28.1,32.4 28.1,32.4 28.1,32.4 28.1,32.5 28.1,32.5 28.1,32.6 28,32.6 28,32.6 28,32.6 28,32.7 28,32.7 28,32.7 28,32.7 
					28,32.8 28,32.8 28,32.9 27.9,32.9 27.9,33 27.9,33 27.9,33 27.9,33 27.9,33.1 27.9,33.1 27.9,33.2 27.8,33.2 27.8,33.2 
					27.8,33.2 27.8,33.3 27.8,33.3 27.8,33.3 27.8,33.3 27.8,33.4 27.7,33.4 27.7,33.5 27.7,33.5 27.7,33.5 27.7,33.5 27.7,33.6 
					27.7,33.6 27.7,33.7 27.6,33.7 27.6,33.7 27.6,33.7 27.6,33.7 27.6,33.7 27.6,33.8 27.6,33.8 27.6,33.9 27.5,33.9 27.5,33.9 
					27.5,33.9 27.5,34 27.5,34 27.5,34.1 27.5,34.1 27.5,34.1 27.5,34.1 27.5,34.2 27.4,34.2 27.4,34.2 27.4,34.2 27.4,34.3 
					27.4,34.3 27.4,34.3 27.4,34.3 27.4,34.4 27.3,34.4 27.3,34.4 27.3,34.4 27.3,34.5 27.3,34.5 27.3,34.5 27.3,34.5 27.3,34.6 
					27.2,34.6 27.2,34.6 27.2,34.6 27.2,34.7 27.2,34.7 27.2,34.7 27.2,34.7 27.2,34.8 27.1,34.8 27.1,34.8 27.1,34.8 27.1,34.9 
					27.1,34.9 27.1,34.9 27.1,34.9 27.1,34.9 27.1,34.9 27.1,35 27,35 27,35 27,35 27,35.1 27,35.1 27,35.1 27,35.1 27,35.2 
					26.9,35.2 26.9,35.2 26.9,35.2 26.9,35.2 26.9,35.2 26.9,35.2 26.9,35.2 26.9,35.3 26.8,35.3 26.8,35.3 26.8,35.3 26.8,35.3 
					26.8,35.3 26.8,35.4 26.8,35.4 26.8,35.4 26.7,35.4 26.7,35.4 26.7,35.4 26.7,35.4 26.7,35.4 26.7,35.5 26.7,35.5 26.7,35.5 
					26.6,35.5 26.6,35.5 26.6,35.5 26.6,35.5 26.6,35.5 26.6,35.6 26.6,35.6 26.6,35.6 26.6,35.6 26.6,35.6 26.5,35.6 26.5,35.6 
					26.5,35.6 26.5,35.6 26.5,35.6 26.5,35.7 26.4,35.7 26.4,35.7 26.4,35.7 26.4,35.7 26.3,35.7 26.3,35.7 26.3,35.7 26.3,35.8 
					26.2,35.8 26.2,35.8 26.2,35.8 26.2,35.8 26.1,35.8 26.1,35.8 25.7,35.8 25.7,35.8 25.6,35.8 25.6,35.8 25.5,35.8 25.5,35.8 
					25.5,35.8 25.5,35.7 25.4,35.7 25.4,35.7 25.4,35.7 25.4,35.7 25.3,35.7 25.3,35.7 25.3,35.7 25.3,35.6 25.3,35.6 25.3,35.6 
					25.2,35.6 25.2,35.6 25.2,35.6 25.2,35.6 25.2,35.6 25.2,35.6 25.1,35.6 25.1,35.5 25.1,35.5 25.1,35.5 25.1,35.5 25.1,35.5 
					25.1,35.5 25.1,35.5 25,35.5 25,35.4 25,35.4 25,35.4 25,35.4 25,35.4 25,35.4 25,35.4 24.9,35.4 24.9,35.3 24.9,35.3 
					24.9,35.3 24.9,35.3 24.9,35.3 24.9,35.3 24.9,35.3 24.8,35.3 24.8,35.2 24.8,35.2 24.8,35.2 24.8,35.2 24.8,35.2 24.8,35.2 
					24.8,35.2 24.7,35.2 24.7,35.2 24.7,35.2 24.7,35.1 24.7,35.1 24.7,35.1 24.7,35.1 24.7,35.1 24.6,35.1 24.6,35 24.6,35 
					24.6,35 24.6,35 24.6,35 24.6,35 24.6,34.9 24.6,34.9 24.6,34.9 24.5,34.9 24.5,34.9 24.5,34.9 24.5,34.8 24.5,34.8 24.5,34.8 
					24.5,34.8 24.5,34.8 24.4,34.8 24.4,34.7 24.4,34.7 24.4,34.7 24.4,34.7 24.4,34.7 24.4,34.7 24.4,34.6 24.3,34.6 24.3,34.6 
					24.3,34.6 24.3,34.6 24.3,34.6 24.3,34.5 24.3,34.5 24.3,34.5 24.2,34.5 24.2,34.4 24.2,34.4 24.2,34.4 24.2,34.4 24.2,34.4 
					24.2,34.4 24.2,34.3 24.1,34.3 24.1,34.3 24.1,34.3 24.1,34.2 24.1,34.2 24.1,34.2 24.1,34.2 24.1,34.2 24.1,34.2 24.1,34.1 
					24,34.1 24,34.1 24,34.1 24,34 24,34 24,34 24,34 24,33.9 23.9,33.9 23.9,33.9 23.9,33.9 23.9,33.8 23.9,33.8 23.9,33.8 
					23.9,33.8 23.9,33.7 23.8,33.7 23.8,33.7 23.8,33.7 23.8,33.7 23.8,33.7 23.8,33.6 23.8,33.6 23.8,33.6 23.7,33.6 23.7,33.5 
					23.7,33.5 23.7,33.4 23.7,33.4 23.7,33.4 23.7,33.4 23.7,33.3 23.6,33.3 23.6,33.3 23.6,33.3 23.6,33.2 23.6,33.2 23.6,33.2 
					23.6,33.2 23.6,33.1 23.6,33.1 23.6,33.1 23.5,33.1 23.5,33 23.5,33 23.5,33 23.5,33 23.5,32.9 23.5,32.9 23.5,32.9 23.4,32.9 
					23.4,32.8 23.4,32.8 23.4,32.8 23.4,32.8 23.4,32.7 23.4,32.7 23.4,32.7 23.3,32.7 23.3,32.6 23.3,32.6 23.3,32.6 23.3,32.6 
					23.3,32.5 23.3,32.5 23.3,32.5 23.2,32.5 23.2,32.4 23.2,32.4 23.2,32.4 23.2,32.4 23.2,32.3 23.2,32.3 23.2,32.3 23.1,32.3 
					23.1,32.2 23.1,32.2 23.1,32.2 23.1,32.2 23.1,32.1 23.1,32.1 23.1,32.1 23.1,32.1 23.1,32 23,32 23,32 23,32 23,31.9 23,31.9 
					23,31.9 23,31.9 23,31.8 22.9,31.8 22.9,31.8 22.9,31.8 22.9,31.7 22.9,31.7 22.9,31.7 22.9,31.7 22.9,31.7 22.8,31.7 
					22.8,31.6 22.8,31.6 22.8,31.5 22.8,31.5 22.8,31.5 22.8,31.5 22.8,31.4 22.7,31.4 22.7,31.4 22.7,31.4 22.7,31.3 22.7,31.3 
					22.7,31.3 22.7,31.3 22.7,31.3 22.6,31.3 22.6,31.2 22.6,31.2 22.6,31.1 22.6,31.1 22.6,31.1 22.6,31.1 22.6,31 22.6,31 
					22.6,31 22.5,31 22.5,30.9 22.5,30.9 22.5,30.9 22.5,30.9 22.5,30.8 22.5,30.8 22.5,30.8 22.4,30.8 22.4,30.7 22.4,30.7 
					22.4,30.7 22.4,30.7 22.4,30.6 22.4,30.6 22.4,30.6 22.3,30.6 22.3,30.5 22.3,30.5 22.3,30.5 22.3,30.5 22.3,30.4 22.3,30.4 
					22.3,30.4 22.2,30.4 22.2,30.3 22.2,30.3 22.2,30.3 22.2,30.3 22.2,30.2 22.2,30.2 22.2,30.2 22.1,30.2 22.1,30.1 22.1,30.1 
					22.1,30.1 22.1,30.1 22.1,30 22.1,30 22.1,30 22.1,30 22.1,29.9 22,29.9 22,29.8 22,29.8 22,29.8 22,29.8 22,29.8 22,29.8 
					22,29.7 21.9,29.7 21.9,29.7 21.9,29.7 21.9,29.6 21.9,29.6 21.9,29.6 21.9,29.6 21.9,29.5 21.8,29.5 21.8,29.5 21.8,29.5 
					21.8,29.4 21.8,29.4 21.8,29.4 21.8,29.4 21.8,29.3 21.7,29.3 21.7,29.3 21.7,29.3 21.7,29.2 21.7,29.2 21.7,29.2 21.7,29.2 
					21.7,29.1 21.6,29.1 21.6,29.1 21.6,29.1 21.6,29.1 21.6,29.1 21.6,29 21.6,29 21.6,29 21.6,29 21.6,28.9 21.5,28.9 21.5,28.9 
					21.5,28.9 21.5,28.8 21.5,28.8 21.5,28.8 21.5,28.8 21.5,28.8 21.4,28.8 21.4,28.7 21.4,28.7 21.4,28.7 21.4,28.7 21.4,28.7 
					21.4,28.7 21.4,28.6 21.3,28.6 21.3,28.6 21.3,28.6 21.3,28.6 21.3,28.6 21.3,28.5 21.3,28.5 21.3,28.5 21.2,28.5 21.2,28.5 
					21.2,28.5 21.2,28.4 21.2,28.4 21.2,28.4 21.2,28.4 21.2,28.4 21.1,28.4 21.1,28.3 21.1,28.3 21.1,28.3 21.1,28.3 21.1,28.3 
					21.1,28.3 21.1,28.3 21.1,28.3 21.1,28.3 21,28.3 21,28.2 21,28.2 21,28.2 21,28.2 21,28.2 21,28.2 21,28.2 20.9,28.2 
					20.9,28.1 20.9,28.1 20.9,28.1 20.9,28.1 20.9,28.1 20.8,28.1 20.8,28.1 20.8,28.1 20.8,28 20.8,28 20.8,28 20.8,28 20.8,28 
					20.7,28 20.7,28 20.7,28 20.7,27.9 20.7,27.9 20.7,27.9 20.6,27.9 20.6,27.9 20.6,27.9 20.6,27.9 20.6,27.9 20.6,27.8 
					20.5,27.8 20.5,27.8 20.5,27.8 20.5,27.8 20.5,27.8 20.5,27.8 20.4,27.8 20.4,27.8 20.4,27.8 20.4,27.7 20.4,27.7 20.4,27.7 
					20.3,27.7 20.3,27.7 20.3,27.7 20.3,27.7 20.2,27.7 20.2,27.6 20.2,27.6 20.2,27.6 20.1,27.6 20.1,27.6 20.1,27.6 20.1,27.6 
					20.1,27.6 20.1,27.5 20,27.5 20,27.5 20,27.5 20,27.5 19.9,27.5 19.9,27.5 19.9,27.5 19.9,27.4 19.8,27.4 19.8,27.4 19.8,27.4 
					19.8,27.4 19.8,27.4 19.8,27.4 19.7,27.4 19.7,27.4 19.7,27.4 19.7,27.3 19.6,27.3 19.6,27.3 19.6,27.3 19.6,27.3 19.5,27.3 
					19.5,27.3 19.5,27.3 19.5,27.2 19.4,27.2 19.4,27.2 19.4,27.2 19.4,27.2 19.3,27.2 19.3,27.2 19.3,27.2 19.3,27.1 19.2,27.1 
					19.2,27.1 19.2,27.1 19.2,27.1 19.1,27.1 19.1,27.1 19.1,27.1 19.1,27 19,27 19,27 19,27 19,27 18.9,27 18.9,27 18.9,27 
					18.9,26.9 18.8,26.9 18.8,26.9 18.8,26.9 18.8,26.9 18.7,26.9 18.7,26.9 18.7,26.9 18.7,26.9 18.6,26.9 18.6,26.8 18.6,26.8 
					18.6,26.8 18.5,26.8 18.5,26.8 18.5,26.8 18.5,26.8 18.4,26.8 18.4,26.7 18.4,26.7 18.4,26.7 18.3,26.7 18.3,26.7 18.3,26.7 
					18.3,26.7 18.2,26.7 18.2,26.6 18.2,26.6 18.2,26.6 18.1,26.6 18.1,26.6 18.1,26.6 18.1,26.6 18,26.6 18,26.5 18,26.5 18,26.5 
					17.9,26.5 17.9,26.5 17.8,26.5 17.8,26.5 17.8,26.5 17.8,26.4 17.7,26.4 17.7,26.4 17.7,26.4 17.7,26.4 17.7,26.4 17.7,26.4 
					17.6,26.4 17.6,26.4 17.5,26.4 17.5,26.3 17.5,26.3 17.5,26.3 17.4,26.3 17.4,26.3 17.4,26.3 17.4,26.3 17.3,26.3 17.3,26.2 
					17.3,26.2 17.3,26.2 17.2,26.2 17.2,26.2 17.2,26.2 17.2,26.2 17.1,26.2 17.1,26.1 17.1,26.1 17.1,26.1 17,26.1 17,26.1 
					17,26.1 17,26.1 16.9,26.1 16.9,26 16.9,26 16.9,26 16.8,26 16.8,26 16.8,26 16.8,26 16.7,26 16.7,25.9 16.7,25.9 16.7,25.9 
					16.6,25.9 16.6,25.9 16.6,25.9 16.6,25.9 16.5,25.9 16.5,25.9 16.5,25.9 16.5,25.8 16.4,25.8 16.4,25.8 16.4,25.8 16.4,25.8 
					16.3,25.8 16.3,25.8 16.3,25.8 16.3,25.7 16.2,25.7 16.2,25.7 16.2,25.7 16.2,25.7 16.1,25.7 16.1,25.7 16.1,25.7 16.1,25.6 
					16,25.6 16,25.6 16,25.6 16,25.6 15.9,25.6 15.9,25.6 15.9,25.6 15.9,25.5 15.8,25.5 15.8,25.5 15.8,25.5 15.8,25.5 15.7,25.5 
					15.7,25.5 15.7,25.5 15.7,25.4 15.6,25.4 15.6,25.4 15.5,25.4 15.5,25.4 15.5,25.4 15.5,25.4 15.4,25.4 15.4,25.4 15.4,25.4 
					15.4,25.3 15.3,25.3 15.3,25.3 15.3,25.3 15.3,25.3 15.2,25.3 15.2,25.3 15.2,25.3 15.2,25.2 15.1,25.2 15.1,25.2 15.1,25.2 
					15.1,25.2 15,25.2 15,25.2 15,25.2 15,25.1 14.9,25.1 14.9,25.1 14.9,25.1 14.9,25.1 14.8,25.1 14.8,25.1 14.8,25.1 14.8,25 
					14.8,25 14.8,25 14.7,25 14.7,25 14.7,25 14.7,25 14.7,25 14.7,24.9 14.6,24.9 14.6,24.9 14.6,24.9 14.6,24.9 14.6,24.9 
					14.6,24.9 14.5,24.9 14.5,24.9 14.5,24.9 14.5,24.8 14.4,24.8 14.4,24.8 14.4,24.8 14.4,24.8 14.4,24.8 14.4,24.8 14.3,24.8 
					14.3,24.7 14.3,24.7 14.3,24.7 14.3,24.7 14.3,24.7 14.2,24.7 14.2,24.7 14.2,24.7 14.2,24.6 14.2,24.6 14.2,24.6 14.2,24.6 
					14.2,24.6 14.2,24.6 14.2,24.6 14.1,24.6 14.1,24.5 14.1,24.5 14.1,24.5 14.1,24.5 14.1,24.5 14,24.5 14,24.5 14,24.5 14,24.4 
					14,24.4 14,24.4 14,24.4 14,24.4 13.9,24.4 13.9,24.4 13.9,24.4 13.9,24.3 13.9,24.3 13.9,24.3 13.9,24.3 13.9,24.3 13.8,24.3 
					13.8,24.3 13.8,24.3 13.8,24.2 13.8,24.2 13.8,24.2 13.8,24.2 13.8,24.2 13.7,24.2 13.7,24.1 13.7,24.1 13.7,24.1 13.7,24.1 
					13.7,24.1 13.7,24.1 13.7,24 13.7,24 13.7,24 13.6,24 13.6,24 13.6,24 13.6,23.9 13.6,23.9 13.6,23.9 13.6,23.9 13.6,23.8 
					13.5,23.8 13.5,23.7 13.5,23.7 13.5,23.7 13.5,23.7 13.5,23.6 13.5,23.6 13.5,23.5 13.4,23.5 13.4,23.2 13.5,23.2 13.5,23.1 
					13.5,23.1 13.5,23 13.5,23 13.5,22.9 13.5,22.9 13.5,22.9 13.6,22.9 13.6,22.8 13.6,22.8 13.6,22.8 13.6,22.8 13.6,22.7 
					13.6,22.7 13.6,22.7 13.7,22.7 13.7,22.7 13.7,22.7 13.7,22.6 13.7,22.6 13.7,22.6 13.7,22.6 13.7,22.6 13.7,22.6 13.7,22.5 
					13.8,22.5 13.8,22.5 13.8,22.5 13.8,22.5 13.8,22.5 13.8,22.5 13.8,22.5 13.8,22.5 13.9,22.5 13.9,22.4 13.9,22.4 13.9,22.4 
					13.9,22.4 13.9,22.4 13.9,22.4 13.9,22.4 14,22.4 14,22.3 14,22.3 14,22.3 14,22.3 14,22.3 14,22.3 14,22.3 14.1,22.3 
					14.1,22.2 14.1,22.2 14.1,22.2 14.1,22.2 14.1,22.2 14.2,22.2 14.2,22.2 14.2,22.2 14.2,22.1 14.2,22.1 14.2,22.1 14.3,22.1 
					14.3,22.1 14.3,22.1 14.3,22.1 14.3,22.1 14.3,22 14.4,22 14.4,22 14.4,22 14.4,22 14.5,22 14.5,22 14.5,22 14.5,22 14.6,22 
					14.6,21.9 14.6,21.9 14.6,21.9 14.7,21.9 14.7,21.9 14.7,21.9 14.7,21.9 14.8,21.9 14.8,21.8 14.8,21.8 14.8,21.8 14.9,21.8 
					14.9,21.8 15,21.8 15,21.8 15,21.8 15,21.7 15.1,21.7 15.1,21.7 15.1,21.7 15.1,21.7 15.2,21.7 15.2,21.7 15.2,21.7 15.2,21.6 
					15.3,21.6 15.3,21.6 15.4,21.6 15.4,21.6 15.4,21.6 15.4,21.6 15.5,21.6 15.5,21.5 15.6,21.5 15.6,21.5 15.6,21.5 15.6,21.5 
					15.7,21.5 15.7,21.5 15.7,21.5 15.7,21.5 15.8,21.5 15.8,21.4 15.9,21.4 15.9,21.4 16,21.4 16,21.4 16,21.4 16,21.4 16.1,21.4 
					16.1,21.3 16.2,21.3 16.2,21.3 16.2,21.3 16.2,21.3 16.3,21.3 16.3,21.3 16.3,21.3 16.3,21.2 16.4,21.2 16.4,21.2 16.5,21.2 
					16.5,21.2 16.5,21.2 16.5,21.2 16.6,21.2 16.6,21.1 16.7,21.1 16.7,21.1 16.7,21.1 16.7,21.1 16.8,21.1 16.8,21.1 16.9,21.1 
					16.9,21 16.9,21 16.9,21 17,21 17,21 17.1,21 17.1,21 17.1,21 17.1,21 17.2,21 17.2,20.9 17.3,20.9 17.3,20.9 17.3,20.9 
					17.3,20.9 17.4,20.9 17.4,20.9 17.5,20.9 17.5,20.8 17.5,20.8 17.5,20.8 17.6,20.8 17.6,20.8 17.7,20.8 17.7,20.8 17.7,20.8 
					17.7,20.7 17.8,20.7 17.8,20.7 17.9,20.7 17.9,20.7 17.9,20.7 17.9,20.7 18,20.7 18,20.6 18.1,20.6 18.1,20.6 18.2,20.6 
					18.2,20.6 18.2,20.6 18.2,20.6 18.3,20.6 18.3,20.5 18.4,20.5 18.4,20.5 18.4,20.5 18.4,20.5 18.5,20.5 18.5,20.5 18.6,20.5 
					18.6,20.5 18.6,20.5 18.6,20.4 18.7,20.4 18.7,20.4 18.8,20.4 18.8,20.4 18.8,20.4 18.8,20.4 18.9,20.4 18.9,20.3 19,20.3 
					19,20.3 19.1,20.3 19.1,20.3 19.1,20.3 19.1,20.3 19.2,20.3 19.2,20.2 19.2,20.2 19.2,20.2 19.3,20.2 19.3,20.2 19.4,20.2 
					19.4,20.2 19.5,20.2 19.5,20.1 19.5,20.1 19.5,20.1 19.6,20.1 19.6,20.1 19.7,20.1 19.7,20.1 19.7,20.1 19.7,20.1 19.8,20.1 
					19.8,20 19.9,20 19.9,20 19.9,20 19.9,20 				"/>
			</g>
			<g id="Group-4" transform="translate(85.000000, 85.000000)">
				<path id="Fill-1" class="st3" d="M22.5,0.1c-6.1,0-6.9,0-9.3,0.1c-2.4,0.1-4,0.5-5.5,1C6.3,1.8,5,2.6,3.8,3.8s-2,2.5-2.6,4
					c-0.6,1.4-0.9,3.1-1,5.4C0,15.6,0,16.4,0,22.5c0,6.1,0,6.9,0.1,9.2c0.1,2.4,0.5,4,1,5.4c0.6,1.5,1.3,2.7,2.6,4s2.5,2,4,2.6
					c1.4,0.6,3.1,0.9,5.5,1c2.4,0.1,3.2,0.1,9.3,0.1s6.9,0,9.3-0.1c2.4-0.1,4-0.5,5.5-1c1.5-0.6,2.7-1.3,4-2.6c1.2-1.2,2-2.5,2.6-4
					c0.6-1.4,0.9-3.1,1-5.4c0.1-2.4,0.1-3.2,0.1-9.2c0-6.1,0-6.9-0.1-9.2c-0.1-2.4-0.5-4-1-5.4c-0.6-1.5-1.3-2.7-2.6-4
					c-1.2-1.2-2.5-2-4-2.6c-1.4-0.6-3.1-0.9-5.5-1C29.3,0.1,28.6,0.1,22.5,0.1"/>
				<path id="Fill-4" class="st4" d="M22.5,30c-4.1,0-7.5-3.3-7.5-7.5c0-4.1,3.4-7.5,7.5-7.5c4.1,0,7.5,3.3,7.5,7.5
					C30,26.6,26.6,30,22.5,30 M22.5,11c-6.4,0-11.5,5.2-11.5,11.5c0,6.4,5.2,11.5,11.5,11.5S34,28.8,34,22.5
					C34,16.1,28.8,11,22.5,11"/>
				<path id="Fill-5" class="st5" d="M37.2,10.5c0,1.5-1.2,2.7-2.7,2.7c-1.5,0-2.7-1.2-2.7-2.7c0-1.5,1.2-2.7,2.7-2.7
					C35.9,7.8,37.2,9,37.2,10.5"/>
			</g>
			<g id="Group-2_00000067922957467824409510000015613656047734815880_" transform="translate(167.000000, 83.000000)">
				<path id="Oval-18" class="st6" d="M24.5,49C38,49,49,38,49,24.5S38,0,24.5,0S0,11,0,24.5S11,49,24.5,49z"/>
				<path id="Combined-Shape" class="st7" d="M24.3,7.2L24.3,7.2c0.5,0,0.9,0.4,0.9,0.9v17c0,0.5-0.4,0.9-0.9,0.9l0,0
					c-0.5,0-0.9-0.4-0.9-0.9v-17C23.4,7.6,23.8,7.2,24.3,7.2z"/>
				<path id="Rectangle-94-Copy" class="st7" d="M23.5,24.9L23.5,24.9c0.2-0.4,0.8-0.6,1.2-0.3l10.1,5.8c0.4,0.2,0.6,0.8,0.3,1.2
					l0,0c-0.2,0.4-0.8,0.6-1.2,0.3l-10.1-5.8C23.4,25.9,23.3,25.4,23.5,24.9z"/>
			</g>
			<g id="Group-2_00000031909976608511085280000012161119818777602450_" transform="translate(252.000000, 0.000000)">
				<path id="Combined-Shape_00000032623974612223270030000005585469232402486409_" class="st8" d="M0,23.1C0.2,10.3,10.7,0,23.5,0
					C36.5,0,47,10.5,47,23.5C47,36,37.2,46.3,24.8,47c-0.2,0-0.3,0-0.5,0H2.9C1.3,47,0,45.7,0,44.1V23.2C0,23.2,0,23.1,0,23.1z"/>
				<path id="Combined-Shape_00000121265100750821704250000016286630462680946082_" class="st3" d="M20.1,18.4
					C20.6,18,20.1,18.4,20.1,18.4c0.5-0.8-0.7-3-2.6-4.9l2.7,2.7c-1.9-1.9-5-2.5-5-2.5s1.1-1.1,0,0c-3.1,3.1-1.7,9.6,3.2,14.5
					c4.9,4.9,11.4,6.3,14.5,3.2c1-1,0,0,0,0c0.5-0.9-0.6-3.1-2.5-5l2.7,2.7c-1.9-1.9-4.9-2.6-4.9-2.6s0.4-0.4,0,0
					c-0.9,0.8-1.2,2-1,3c0,0.1-3.1-0.4-6.5-3.6c-3.3-3.4-3.7-6.5-3.6-6.5C18.2,19.6,19.3,19.2,20.1,18.4z"/>
			</g>
			<g id="Group-2_00000080902894799629879840000018283616578006202025_" transform="translate(250.000000, 83.000000)">
				<circle id="Oval-106-Copy" class="st5" cx="24.5" cy="24.5" r="24.5"/>
				<polygon id="Shape_00000129207249756836147970000016567540478591937942_" class="st3" points="17.7,17.9 17.7,17.9 17.8,17.9 
					17.8,17.8 17.8,17.8 17.8,17.7 17.9,17.7 17.9,17.7 17.9,17.7 17.9,17.6 18,17.6 18,17.5 18,17.5 18,17.5 18.1,17.5 18.1,17.4 
					18.1,17.4 18.1,17.3 18.2,17.3 18.2,17.3 18.2,17.3 18.2,17.2 18.3,17.2 18.3,17.2 18.3,17.2 18.3,17.1 18.4,17.1 18.4,17.1 
					18.4,17.1 18.4,17 18.5,17 18.5,16.9 18.5,16.9 18.5,16.9 18.6,16.9 18.6,16.8 18.6,16.8 18.6,16.8 18.7,16.8 18.7,16.7 
					18.7,16.7 18.7,16.7 18.8,16.7 18.8,16.6 18.8,16.6 18.8,16.6 18.9,16.6 18.9,16.5 19,16.5 19,16.5 19,16.5 19,16.4 19.1,16.4 
					19.1,16.4 19.1,16.4 19.1,16.3 19.2,16.3 19.2,16.3 19.2,16.3 19.2,16.2 19.3,16.2 19.3,16.2 19.4,16.2 19.4,16.1 19.4,16.1 
					19.4,16.1 19.5,16.1 19.5,16 19.6,16 19.6,16 19.6,16 19.6,15.9 19.7,15.9 19.7,15.9 19.8,15.9 19.8,15.8 19.8,15.8 19.8,15.8 
					19.9,15.8 19.9,15.7 20,15.7 20,15.7 20.1,15.7 20.1,15.6 20.1,15.6 20.1,15.6 20.2,15.6 20.2,15.5 20.3,15.5 20.3,15.5 
					20.4,15.5 20.4,15.4 20.5,15.4 20.5,15.4 20.6,15.4 20.6,15.3 20.6,15.3 20.6,15.3 20.7,15.3 20.7,15.2 20.8,15.2 20.8,15.2 
					20.9,15.2 20.9,15.1 21,15.1 21,15.1 21.1,15.1 21.1,15 21.2,15 21.2,15 21.3,15 21.3,14.9 21.4,14.9 21.4,14.9 21.6,14.9 
					21.6,14.8 21.7,14.8 21.7,14.8 21.8,14.8 21.8,14.7 22,14.7 22,14.7 22.1,14.7 22.1,14.6 22.3,14.6 22.3,14.6 22.4,14.6 
					22.4,14.5 22.6,14.5 22.6,14.5 22.8,14.5 22.8,14.4 23,14.4 23,14.4 23.3,14.4 23.3,14.3 23.5,14.3 23.5,14.3 23.8,14.3 
					23.8,14.2 24.3,14.2 24.3,14.2 24.9,14.2 24.9,14.1 25.9,14.1 25.9,14.2 26.5,14.2 26.5,14.2 26.9,14.2 26.9,14.3 27.2,14.3 
					27.2,14.3 27.4,14.3 27.4,14.4 27.7,14.4 27.7,14.4 27.9,14.4 27.9,14.5 28,14.5 28,14.5 28.2,14.5 28.2,14.6 28.3,14.6 
					28.3,14.6 28.4,14.6 28.4,14.7 28.6,14.7 28.6,14.7 28.7,14.7 28.7,14.8 28.8,14.8 28.8,14.8 29,14.8 29,14.9 29.1,14.9 
					29.1,14.9 29.2,14.9 29.2,15 29.3,15 29.3,15 29.4,15 29.4,15.1 29.5,15.1 29.5,15.1 29.6,15.1 29.6,15.2 29.7,15.2 29.7,15.2 
					29.8,15.2 29.8,15.3 29.8,15.3 29.8,15.3 29.9,15.3 29.9,15.4 30,15.4 30,15.4 30.1,15.4 30.1,15.5 30.2,15.5 30.2,15.5 
					30.2,15.5 30.2,15.6 30.3,15.6 30.3,15.6 30.4,15.6 30.4,15.7 30.5,15.7 30.5,15.7 30.5,15.7 30.5,15.8 30.6,15.8 30.6,15.8 
					30.7,15.8 30.7,15.9 30.7,15.9 30.7,15.9 30.8,15.9 30.8,16 30.9,16 30.9,16 30.9,16 30.9,16.1 31,16.1 31,16.1 31,16.1 
					31,16.2 31.1,16.2 31.1,16.2 31.1,16.2 31.1,16.3 31.2,16.3 31.2,16.3 31.3,16.3 31.3,16.4 31.3,16.4 31.3,16.4 31.4,16.4 
					31.4,16.5 31.4,16.5 31.4,16.5 31.5,16.5 31.5,16.6 31.5,16.6 31.5,16.6 31.6,16.6 31.6,16.7 31.6,16.7 31.6,16.8 31.7,16.8 
					31.7,16.8 31.7,16.8 31.7,16.9 31.8,16.9 31.8,16.9 31.8,16.9 31.8,17 31.8,17 31.8,17 31.9,17 31.9,17.1 31.9,17.1 31.9,17.2 
					32,17.2 32,17.2 32,17.2 32,17.3 32.1,17.3 32.1,17.4 32.1,17.4 32.1,17.4 32.2,17.4 32.2,17.5 32.2,17.5 32.2,17.6 32.3,17.6 
					32.3,17.7 32.3,17.7 32.3,17.7 32.4,17.7 32.4,17.8 32.4,17.8 32.4,17.9 32.5,17.9 32.5,18 32.5,18 32.5,18.1 32.6,18.1 
					32.6,18.1 32.6,18.1 32.6,18.2 32.7,18.2 32.7,18.3 32.7,18.3 32.7,18.4 32.8,18.4 32.8,18.5 32.8,18.5 32.8,18.6 32.9,18.6 
					32.9,18.7 32.9,18.7 32.9,18.9 33,18.9 33,19 33,19 33,19.1 33.1,19.1 33.1,19.3 33.1,19.3 33.1,19.4 33.2,19.4 33.2,19.6 
					33.2,19.6 33.2,19.7 33.3,19.7 33.3,19.9 33.3,19.9 33.3,20.2 33.4,20.2 33.4,20.4 33.4,20.4 33.4,20.8 33.5,20.8 33.5,22.5 
					33.4,22.5 33.4,23 33.4,23 33.4,23.4 33.3,23.4 33.3,23.7 33.3,23.7 33.3,24 33.2,24 33.2,24.2 33.2,24.2 33.2,24.4 33.1,24.4 
					33.1,24.6 33.1,24.6 33.1,24.8 33,24.8 33,25 33,25 33,25.1 32.9,25.1 32.9,25.3 32.9,25.3 32.9,25.4 32.8,25.4 32.8,25.5 
					32.8,25.5 32.8,25.7 32.7,25.7 32.7,25.8 32.7,25.8 32.7,25.9 32.6,25.9 32.6,26 32.6,26 32.6,26.2 32.5,26.2 32.5,26.3 
					32.5,26.3 32.5,26.4 32.4,26.4 32.4,26.5 32.4,26.5 32.4,26.6 32.3,26.6 32.3,26.7 32.3,26.7 32.3,26.8 32.2,26.8 32.2,26.8 
					32.2,26.8 32.2,26.9 32.1,26.9 32.1,27 32.1,27 32.1,27.1 32,27.1 32,27.2 32,27.2 32,27.3 31.9,27.3 31.9,27.3 31.9,27.3 
					31.9,27.4 31.8,27.4 31.8,27.5 31.8,27.5 31.8,27.6 31.8,27.6 31.8,27.6 31.7,27.6 31.7,27.7 31.7,27.7 31.7,27.8 31.6,27.8 
					31.6,27.8 31.6,27.8 31.6,27.9 31.5,27.9 31.5,27.9 31.5,27.9 31.5,28 31.4,28 31.4,28.1 31.4,28.1 31.4,28.1 31.3,28.1 
					31.3,28.2 31.3,28.2 31.3,28.2 31.2,28.2 31.2,28.3 31.2,28.3 31.2,28.4 31.1,28.4 31.1,28.4 31.1,28.4 31.1,28.5 31,28.5 
					31,28.5 31,28.5 31,28.6 30.9,28.6 30.9,28.6 30.8,28.6 30.8,28.7 30.8,28.7 30.8,28.7 30.7,28.7 30.7,28.8 30.7,28.8 
					30.7,28.8 30.6,28.8 30.6,28.9 30.6,28.9 30.6,28.9 30.5,28.9 30.5,29 30.4,29 30.4,29 30.4,29 30.4,29.1 30.3,29.1 30.3,29.1 
					30.2,29.1 30.2,29.2 30.2,29.2 30.2,29.2 30.1,29.2 30.1,29.3 30,29.3 30,29.3 30,29.3 30,29.4 29.9,29.4 29.9,29.4 29.8,29.4 
					29.8,29.5 29.7,29.5 29.7,29.5 29.6,29.5 29.6,29.6 29.5,29.6 29.5,29.6 29.4,29.6 29.4,29.7 29.3,29.7 29.3,29.7 29.2,29.7 
					29.2,29.8 29.1,29.8 29.1,29.8 29,29.8 29,29.9 28.9,29.9 28.9,29.9 28.8,29.9 28.8,30 28.6,30 28.6,30 28.5,30 28.5,30.1 
					28.3,30.1 28.3,30.1 28.2,30.1 28.2,30.2 27.9,30.2 27.9,30.2 27.7,30.2 27.7,30.3 27.3,30.3 27.3,30.3 26.2,30.3 26.2,30.3 
					25.9,30.3 25.9,30.2 25.6,30.2 25.6,30.2 25.5,30.2 25.5,30.1 25.3,30.1 25.3,30.1 25.2,30.1 25.2,30 25.1,30 25.1,30 24.9,30 
					24.9,29.9 24.8,29.9 24.8,29.9 24.7,29.9 24.7,29.8 24.6,29.8 24.6,29.8 24.6,29.8 24.6,29.7 24.5,29.7 24.5,29.7 24.5,29.7 
					24.5,29.6 24.4,29.6 24.4,29.6 24.3,29.6 24.3,29.5 24.2,29.5 24.2,29.5 24.2,29.5 24.2,29.4 24.1,29.4 24.1,29.4 24.1,29.4 
					24.1,29.3 24,29.3 24,29.3 24,29.3 24,29.2 23.9,29.2 23.9,29.2 23.9,29.2 23.9,29.1 23.8,29.1 23.8,29.1 23.8,29.1 23.8,29 
					23.7,29 23.7,28.9 23.7,28.9 23.7,28.9 23.6,28.9 23.6,28.8 23.6,28.8 23.6,28.7 23.5,28.7 23.5,28.8 23.5,28.8 23.5,29 
					23.4,29 23.4,29.2 23.4,29.2 23.4,29.4 23.3,29.4 23.3,29.6 23.3,29.6 23.3,29.8 23.2,29.8 23.2,30 23.2,30 23.2,30.2 
					23.1,30.2 23.1,30.4 23.1,30.4 23.1,30.6 23,30.6 23,30.8 23,30.8 23,31 22.9,31 22.9,31.2 22.9,31.2 22.9,31.4 22.8,31.4 
					22.8,31.6 22.8,31.6 22.8,31.7 22.7,31.7 22.7,31.9 22.7,31.9 22.7,32.1 22.6,32.1 22.6,32.3 22.6,32.3 22.6,32.4 22.5,32.4 
					22.5,32.6 22.5,32.6 22.5,32.7 22.4,32.7 22.4,32.9 22.4,32.9 22.4,33 22.3,33 22.3,33.1 22.3,33.1 22.3,33.2 22.2,33.2 
					22.2,33.4 22.2,33.4 22.2,33.5 22.1,33.5 22.1,33.6 22.1,33.6 22.1,33.7 22,33.7 22,33.8 22,33.8 22,33.9 21.9,33.9 21.9,34 
					21.9,34 21.9,34.1 21.8,34.1 21.8,34.2 21.8,34.2 21.8,34.3 21.7,34.3 21.7,34.3 21.7,34.3 21.7,34.4 21.6,34.4 21.6,34.5 
					21.6,34.5 21.6,34.6 21.5,34.6 21.5,34.7 21.5,34.7 21.5,34.8 21.4,34.8 21.4,34.9 21.4,34.9 21.4,34.9 21.3,34.9 21.3,35 
					21.3,35 21.3,35.1 21.2,35.1 21.2,35.2 21.2,35.2 21.2,35.2 21.1,35.2 21.1,35.3 21.1,35.3 21.1,35.4 21,35.4 21,35.5 21,35.5 
					21,35.5 20.9,35.5 20.9,35.6 20.9,35.6 20.9,35.7 20.9,35.7 20.9,35.8 20.8,35.8 20.8,35.8 20.8,35.8 20.8,35.9 20.7,35.9 
					20.7,36 20.7,36 20.7,36 20.6,36 20.6,36.1 20.6,36.1 20.6,36.2 20.5,36.2 20.5,36.2 20.5,36.2 20.5,36.3 20.4,36.3 20.4,36.4 
					20.4,36.4 20.4,36.4 20.3,36.4 20.3,36.5 20.3,36.5 20.3,36.5 20.2,36.5 20.2,36.5 20.1,36.5 20.1,36.2 20,36.2 20,35.9 
					20,35.9 20,35.4 19.9,35.4 19.9,34.8 19.9,34.8 19.9,33 19.9,33 19.9,32.4 20,32.4 20,32.1 20,32.1 20,31.8 20.1,31.8 
					20.1,31.6 20.1,31.6 20.1,31.4 20.2,31.4 20.2,31.2 20.2,31.2 20.2,31 20.3,31 20.3,30.8 20.3,30.8 20.3,30.5 20.4,30.5 
					20.4,30.3 20.4,30.3 20.4,30.1 20.5,30.1 20.5,29.9 20.5,29.9 20.5,29.7 20.6,29.7 20.6,29.5 20.6,29.5 20.6,29.3 20.7,29.3 
					20.7,29.1 20.7,29.1 20.7,28.8 20.8,28.8 20.8,28.6 20.8,28.6 20.8,28.4 20.9,28.4 20.9,28.2 20.9,28.2 20.9,28 20.9,28 
					20.9,27.8 21,27.8 21,27.6 21,27.6 21,27.4 21.1,27.4 21.1,27.2 21.1,27.2 21.1,26.9 21.2,26.9 21.2,26.7 21.2,26.7 21.2,26.5 
					21.3,26.5 21.3,26.3 21.3,26.3 21.3,26.1 21.4,26.1 21.4,25.9 21.4,25.9 21.4,25.7 21.5,25.7 21.5,25.5 21.5,25.5 21.5,25.2 
					21.6,25.2 21.6,25 21.6,25 21.6,24.8 21.7,24.8 21.7,24.6 21.7,24.6 21.7,24.4 21.7,24.4 21.7,24.3 21.6,24.3 21.6,24.2 
					21.6,24.2 21.6,24 21.5,24 21.5,23.9 21.5,23.9 21.5,23.7 21.4,23.7 21.4,23.4 21.4,23.4 21.4,23.1 21.3,23.1 21.3,21.8 
					21.4,21.8 21.4,21.6 21.4,21.6 21.4,21.3 21.5,21.3 21.5,21.2 21.5,21.2 21.5,21 21.6,21 21.6,20.9 21.6,20.9 21.6,20.8 
					21.7,20.8 21.7,20.7 21.7,20.7 21.7,20.6 21.8,20.6 21.8,20.5 21.8,20.5 21.8,20.4 21.9,20.4 21.9,20.3 21.9,20.3 21.9,20.2 
					22,20.2 22,20.1 22,20.1 22,20.1 22.1,20.1 22.1,20 22.1,20 22.1,20 22.2,20 22.2,19.9 22.2,19.9 22.2,19.8 22.3,19.8 
					22.3,19.8 22.3,19.8 22.3,19.7 22.4,19.7 22.4,19.7 22.5,19.7 22.5,19.6 22.5,19.6 22.5,19.6 22.6,19.6 22.6,19.5 22.7,19.5 
					22.7,19.5 22.7,19.5 22.7,19.4 22.8,19.4 22.8,19.4 22.9,19.4 22.9,19.3 23,19.3 23,19.3 23.2,19.3 23.2,19.2 23.3,19.2 
					23.3,19.2 23.7,19.2 23.7,19.1 23.9,19.1 23.9,19.2 24.2,19.2 24.2,19.2 24.4,19.2 24.4,19.3 24.5,19.3 24.5,19.3 24.6,19.3 
					24.6,19.4 24.7,19.4 24.7,19.4 24.7,19.4 24.7,19.5 24.8,19.5 24.8,19.5 24.9,19.5 24.9,19.6 24.9,19.6 24.9,19.6 25,19.6 
					25,19.7 25,19.7 25,19.8 25.1,19.8 25.1,19.8 25.1,19.8 25.1,19.9 25.2,19.9 25.2,20 25.2,20 25.2,20.1 25.3,20.1 25.3,20.2 
					25.3,20.2 25.3,20.4 25.4,20.4 25.4,20.6 25.4,20.6 25.4,21.6 25.4,21.6 25.4,21.9 25.3,21.9 25.3,22.1 25.3,22.1 25.3,22.3 
					25.2,22.3 25.2,22.5 25.2,22.5 25.2,22.7 25.1,22.7 25.1,22.9 25.1,22.9 25.1,23 25,23 25,23.2 25,23.2 25,23.4 24.9,23.4 
					24.9,23.5 24.9,23.5 24.9,23.7 24.8,23.7 24.8,23.9 24.8,23.9 24.8,24 24.7,24 24.7,24.2 24.7,24.2 24.7,24.4 24.6,24.4 
					24.6,24.5 24.6,24.5 24.6,24.7 24.6,24.7 24.6,24.9 24.5,24.9 24.5,25 24.5,25 24.5,25.2 24.4,25.2 24.4,25.4 24.4,25.4 
					24.4,25.6 24.3,25.6 24.3,25.9 24.3,25.9 24.3,26.4 24.3,26.4 24.3,26.7 24.4,26.7 24.4,26.8 24.4,26.8 24.4,26.9 24.5,26.9 
					24.5,27.1 24.5,27.1 24.5,27.1 24.6,27.1 24.6,27.2 24.6,27.2 24.6,27.3 24.6,27.3 24.6,27.4 24.7,27.4 24.7,27.4 24.7,27.4 
					24.7,27.5 24.8,27.5 24.8,27.5 24.8,27.5 24.8,27.6 24.9,27.6 24.9,27.6 24.9,27.6 24.9,27.7 25,27.7 25,27.7 25.1,27.7 
					25.1,27.8 25.1,27.8 25.1,27.8 25.2,27.8 25.2,27.9 25.3,27.9 25.3,27.9 25.4,27.9 25.4,28 25.5,28 25.5,28 25.7,28 25.7,28.1 
					25.8,28.1 25.8,28.1 26.2,28.1 26.2,28.2 26.5,28.2 26.5,28.1 26.9,28.1 26.9,28.1 27.1,28.1 27.1,28 27.3,28 27.3,28 27.4,28 
					27.4,27.9 27.5,27.9 27.5,27.9 27.6,27.9 27.6,27.8 27.7,27.8 27.7,27.8 27.8,27.8 27.8,27.7 27.9,27.7 27.9,27.7 28,27.7 
					28,27.6 28.1,27.6 28.1,27.6 28.1,27.6 28.1,27.5 28.2,27.5 28.2,27.5 28.2,27.5 28.2,27.4 28.3,27.4 28.3,27.4 28.3,27.4 
					28.3,27.3 28.4,27.3 28.4,27.3 28.4,27.3 28.4,27.2 28.5,27.2 28.5,27.2 28.5,27.2 28.5,27.1 28.6,27.1 28.6,27.1 28.6,27.1 
					28.6,27 28.7,27 28.7,27 28.7,27 28.7,26.9 28.8,26.9 28.8,26.8 28.8,26.8 28.8,26.8 28.9,26.8 28.9,26.7 28.9,26.7 28.9,26.7 
					29,26.7 29,26.6 29,26.6 29,26.5 29.1,26.5 29.1,26.4 29.1,26.4 29.1,26.4 29.2,26.4 29.2,26.3 29.2,26.3 29.2,26.2 29.3,26.2 
					29.3,26.1 29.3,26.1 29.3,26 29.4,26 29.4,25.9 29.4,25.9 29.4,25.8 29.5,25.8 29.5,25.7 29.5,25.7 29.5,25.6 29.6,25.6 
					29.6,25.5 29.6,25.5 29.6,25.4 29.7,25.4 29.7,25.3 29.7,25.3 29.7,25.2 29.8,25.2 29.8,25 29.8,25 29.8,24.9 29.9,24.9 
					29.9,24.8 29.9,24.8 29.9,24.6 30,24.6 30,24.4 30,24.4 30,24.3 30.1,24.3 30.1,24.1 30.1,24.1 30.1,23.9 30.2,23.9 30.2,23.6 
					30.2,23.6 30.2,23.4 30.3,23.4 30.3,23.1 30.3,23.1 30.3,22.7 30.4,22.7 30.4,22.1 30.4,22.1 30.4,20.6 30.4,20.6 30.4,20.3 
					30.3,20.3 30.3,20 30.3,20 30.3,19.8 30.2,19.8 30.2,19.6 30.2,19.6 30.2,19.5 30.1,19.5 30.1,19.3 30.1,19.3 30.1,19.2 
					30,19.2 30,19.1 30,19.1 30,19 29.9,19 29.9,18.9 29.9,18.9 29.9,18.8 29.8,18.8 29.8,18.7 29.8,18.7 29.8,18.6 29.7,18.6 
					29.7,18.5 29.7,18.5 29.7,18.4 29.6,18.4 29.6,18.4 29.6,18.4 29.6,18.3 29.5,18.3 29.5,18.2 29.5,18.2 29.5,18.2 29.4,18.2 
					29.4,18.1 29.4,18.1 29.4,18 29.3,18 29.3,18 29.3,18 29.3,17.9 29.2,17.9 29.2,17.9 29.2,17.9 29.2,17.8 29.1,17.8 29.1,17.8 
					29.1,17.8 29.1,17.7 29,17.7 29,17.7 29,17.7 29,17.6 28.9,17.6 28.9,17.6 28.9,17.6 28.9,17.5 28.8,17.5 28.8,17.5 28.8,17.5 
					28.8,17.4 28.7,17.4 28.7,17.4 28.6,17.4 28.6,17.3 28.6,17.3 28.6,17.3 28.5,17.3 28.5,17.2 28.4,17.2 28.4,17.2 28.3,17.2 
					28.3,17.1 28.3,17.1 28.3,17.1 28.2,17.1 28.2,17 28.1,17 28.1,17 28,17 28,16.9 27.9,16.9 27.9,16.9 27.8,16.9 27.8,16.8 
					27.7,16.8 27.7,16.8 27.6,16.8 27.6,16.7 27.5,16.7 27.5,16.7 27.4,16.7 27.4,16.6 27.2,16.6 27.2,16.6 27,16.6 27,16.5 
					26.9,16.5 26.9,16.5 26.7,16.5 26.7,16.4 26.4,16.4 26.4,16.4 26.1,16.4 26.1,16.3 25.5,16.3 25.5,16.3 24.7,16.3 24.7,16.3 
					24.2,16.3 24.2,16.4 23.9,16.4 23.9,16.4 23.6,16.4 23.6,16.5 23.4,16.5 23.4,16.5 23.2,16.5 23.2,16.6 23,16.6 23,16.6 
					22.9,16.6 22.9,16.7 22.7,16.7 22.7,16.7 22.6,16.7 22.6,16.8 22.5,16.8 22.5,16.8 22.4,16.8 22.4,16.9 22.2,16.9 22.2,16.9 
					22.1,16.9 22.1,17 22,17 22,17 21.9,17 21.9,17.1 21.8,17.1 21.8,17.1 21.8,17.1 21.8,17.2 21.7,17.2 21.7,17.2 21.6,17.2 
					21.6,17.3 21.5,17.3 21.5,17.3 21.4,17.3 21.4,17.4 21.4,17.4 21.4,17.4 21.3,17.4 21.3,17.5 21.2,17.5 21.2,17.5 21.2,17.5 
					21.2,17.6 21.1,17.6 21.1,17.6 21,17.6 21,17.7 21,17.7 21,17.7 20.9,17.7 20.9,17.8 20.9,17.8 20.9,17.8 20.8,17.8 20.8,17.9 
					20.8,17.9 20.8,17.9 20.7,17.9 20.7,18 20.7,18 20.7,18 20.6,18 20.6,18.1 20.6,18.1 20.6,18.1 20.5,18.1 20.5,18.2 20.5,18.2 
					20.5,18.2 20.4,18.2 20.4,18.3 20.4,18.3 20.4,18.3 20.3,18.3 20.3,18.4 20.3,18.4 20.3,18.5 20.2,18.5 20.2,18.5 20.2,18.5 
					20.2,18.6 20.1,18.6 20.1,18.6 20.1,18.6 20.1,18.7 20,18.7 20,18.8 20,18.8 20,18.8 19.9,18.8 19.9,18.9 19.9,18.9 19.9,19 
					19.8,19 19.8,19.1 19.8,19.1 19.8,19.1 19.7,19.1 19.7,19.2 19.7,19.2 19.7,19.3 19.6,19.3 19.6,19.4 19.6,19.4 19.6,19.5 
					19.5,19.5 19.5,19.6 19.5,19.6 19.5,19.7 19.4,19.7 19.4,19.8 19.4,19.8 19.4,19.9 19.3,19.9 19.3,20 19.3,20 19.3,20.1 
					19.2,20.1 19.2,20.3 19.2,20.3 19.2,20.4 19.1,20.4 19.1,20.6 19.1,20.6 19.1,20.7 19,20.7 19,20.9 19,20.9 19,21.1 18.9,21.1 
					18.9,21.4 18.9,21.4 18.9,21.7 18.8,21.7 18.8,23.2 18.9,23.2 18.9,23.5 18.9,23.5 18.9,23.7 19,23.7 19,23.9 19,23.9 19,24 
					19.1,24 19.1,24.1 19.1,24.1 19.1,24.3 19.2,24.3 19.2,24.4 19.2,24.4 19.2,24.5 19.3,24.5 19.3,24.6 19.3,24.6 19.3,24.6 
					19.4,24.6 19.4,24.7 19.4,24.7 19.4,24.8 19.5,24.8 19.5,24.9 19.5,24.9 19.5,24.9 19.6,24.9 19.6,25 19.6,25 19.6,25 19.7,25 
					19.7,25.1 19.7,25.1 19.7,25.2 19.8,25.2 19.8,25.2 19.8,25.2 19.8,25.3 19.9,25.3 19.9,25.7 19.8,25.7 19.8,25.9 19.8,25.9 
					19.8,26.1 19.7,26.1 19.7,26.3 19.7,26.3 19.7,26.5 19.6,26.5 19.6,26.7 19.6,26.7 19.6,26.9 19.5,26.9 19.5,26.9 19.5,26.9 
					19.5,27 19.4,27 19.4,27.1 19.3,27.1 19.3,27.1 19,27.1 19,27.1 18.9,27.1 18.9,27 18.8,27 18.8,27 18.7,27 18.7,26.9 
					18.6,26.9 18.6,26.9 18.5,26.9 18.5,26.8 18.4,26.8 18.4,26.8 18.3,26.8 18.3,26.7 18.3,26.7 18.3,26.7 18.2,26.7 18.2,26.6 
					18.1,26.6 18.1,26.6 18.1,26.6 18.1,26.5 18,26.5 18,26.5 17.9,26.5 17.9,26.4 17.9,26.4 17.9,26.4 17.8,26.4 17.8,26.3 
					17.8,26.3 17.8,26.3 17.7,26.3 17.7,26.2 17.7,26.2 17.7,26.2 17.6,26.2 17.6,26.1 17.6,26.1 17.6,26 17.5,26 17.5,26 17.5,26 
					17.5,25.9 17.4,25.9 17.4,25.9 17.4,25.9 17.4,25.8 17.3,25.8 17.3,25.7 17.3,25.7 17.3,25.6 17.3,25.6 17.3,25.6 17.2,25.6 
					17.2,25.5 17.2,25.5 17.2,25.4 17.1,25.4 17.1,25.3 17.1,25.3 17.1,25.2 17,25.2 17,25.1 17,25.1 17,25 16.9,25 16.9,24.9 
					16.9,24.9 16.9,24.8 16.8,24.8 16.8,24.6 16.8,24.6 16.8,24.5 16.7,24.5 16.7,24.4 16.7,24.4 16.7,24.2 16.6,24.2 16.6,24 
					16.6,24 16.6,23.8 16.5,23.8 16.5,23.5 16.5,23.5 16.5,23.2 16.4,23.2 16.4,22.6 16.4,22.6 16.4,21.8 16.4,21.8 16.4,21.3 
					16.5,21.3 16.5,21 16.5,21 16.5,20.7 16.6,20.7 16.6,20.5 16.6,20.5 16.6,20.3 16.7,20.3 16.7,20.1 16.7,20.1 16.7,20 16.8,20 
					16.8,19.8 16.8,19.8 16.8,19.7 16.9,19.7 16.9,19.6 16.9,19.6 16.9,19.4 17,19.4 17,19.3 17,19.3 17,19.2 17.1,19.2 17.1,19.1 
					17.1,19.1 17.1,19 17.2,19 17.2,18.9 17.2,18.9 17.2,18.8 17.3,18.8 17.3,18.7 17.3,18.7 17.3,18.6 17.3,18.6 17.3,18.5 
					17.4,18.5 17.4,18.4 17.4,18.4 17.4,18.3 17.5,18.3 17.5,18.3 17.5,18.3 17.5,18.2 17.6,18.2 17.6,18.1 17.6,18.1 17.6,18 
					17.7,18 17.7,17.9 				"/>
			</g>
			<g id="Group-2_00000065034841363118395280000000634914801254854053_" transform="translate(169.000000, 0.000000)">
				<path id="Mask" class="st5" d="M22.5,0c-0.6,0-1.3,0-3.8,2.3c0,0-15.6,13.6-17.2,14.9S0,19.9,0,21.2v23.2c0,1.6,1.3,3,3,3h19.5
					l19.5,0c1.6,0,3-1.3,3-3V21.2c0-1.3,0-2.7-1.6-4C41.9,15.9,26.3,2.3,26.3,2.3C23.8,0,23.1,0,22.5,0L22.5,0z"/>
				<g id="Combined-Shape_00000090254489173331891650000005051515593413005474_">
					<path id="path-1" class="st9" d="M45,20.1c-0.1-1-0.4-2-1.5-2.9C41.9,15.9,26.3,2.3,26.3,2.3C23.8,0,23.1,0,22.5,0l0,0
						c-0.6,0-1.3,0-3.8,2.3c0,0-15.6,13.6-17.2,14.9c-1.1,1-1.4,2-1.5,2.9c0.1,1,0.4,2,1.5,2.9c1.6,1.3,14.9,10.4,17.1,11.7
						c3,1.8,3.3,1.6,3.8,1.6c0.6,0,0.9,0.2,3.8-1.6c2.2-1.3,15.6-10.4,17.1-11.7C44.6,22.1,44.9,21.1,45,20.1z"/>
				</g>
				<g id="Combined-Shape_00000181063793011865795200000015439659526765821870_" transform="translate(3.000000, 6.000000)">
					<path id="path-3" class="st3" d="M38.2,18.8c-4.3,3.1-13.1,9-14.8,10c-3,1.8-3.3,1.6-3.8,1.6c-0.6,0-0.9,0.2-3.8-1.6
						c-1.8-1.1-10.5-7-14.8-10V0.2h37.3V18.8z"/>
				</g>
				<g id="G-Clipped" transform="translate(3.000000, 6.000000)">
					<g>
						<defs>
							<filter id="Adobe_OpacityMaskFilter" filterUnits="userSpaceOnUse" x="11.5" y="8" width="16.4" height="16.4">
								<feColorMatrix  type="matrix" values="1 0 0 0 0  0 1 0 0 0  0 0 1 0 0  0 0 0 1 0"/>
							</filter>
						</defs>
						
							<mask maskUnits="userSpaceOnUse" x="11.5" y="8" width="16.4" height="16.4" id="mask-2_00000094586266322043756910000004459507974348881306_">
							<g class="st10">
								<path id="path-1_00000081622751489209477120000010480414668969066671_" class="st3" d="M38.2,18.8c-4.3,3.1-13.1,9-14.8,10
									c-3,1.8-3.3,1.6-3.8,1.6c-0.6,0-0.9,0.2-3.8-1.6c-1.8-1.1-10.5-7-14.8-10V0.2h37.3V18.8z"/>
							</g>
						</mask>
						<path id="G" class="st11" d="M19.6,15.4v2.7H24c-0.7,1.7-2.4,2.8-4.4,2.8c-2.7,0-4.8-2.1-4.8-4.8s2.1-4.8,4.8-4.8
							c1.9,0,3.4,1,4.2,2.5l3-1.6C25.5,9.8,22.8,8,19.7,8c-4.6,0-8.2,3.7-8.2,8.2s3.7,8.2,8.2,8.2c4.5,0,8.2-3.7,8.2-8.2v-0.8H19.6z
							"/>
					</g>
				</g>
			</g>
			<g id="Group" transform="translate(82.000000, 0.000000)">
				<path id="Combined-Shape_00000135681444416696597310000004883641447136832698_" class="st8" d="M50.9,28.1c1.2-1.2,1.2-3,0-4.2
					L28.1,1.1c-1.2-1.2-3-1.2-4.2,0L1.1,23.9c-1.2,1.2-1.2,3,0,4.2c0,0,17.6,17.6,18.2,18.2c0.6,0.6,1.1,0.6,1.8,0.6H26
					c0,0,3.7,0,4.9,0c1.3,0,1.8-0.6,1.8-0.6L50.9,28.1z"/>
				<path id="Shape_00000046298722269185023970000005881131464098703266_" class="st12" d="M25.8,11.4c-0.4,0-0.8,0.2-1.1,0.5
					L11.5,25.7c-0.6,0.6-0.6,1.6,0,2.1l1.1,1.1l3.5-0.1l12.5-13.2c0.6-0.6,0.5-1.6-0.1-2.1l-1.8-1.7C26.5,11.5,26.2,11.4,25.8,11.4
					L25.8,11.4z M26.7,21.9c-0.4,0-0.8,0.2-1.1,0.5l-8.4,8.7c-0.6,0.6-0.6,1.6,0,2.1l1.1,1l3.5-0.1l7.7-8c0.6-0.6,0.6-1.6,0-2.1
					l-1.9-1.7C27.4,22.1,27,21.9,26.7,21.9L26.7,21.9z M25.8,34.1c-0.4,0-0.8,0.2-1.1,0.5L23,36.3c-0.6,0.6-0.6,1.6,0,2.2l1,1.1
					l3.4,0l1.1-1.1c0.6-0.6,0.6-1.6,0-2.2l-1.7-1.9C26.6,34.2,26.2,34.1,25.8,34.1L25.8,34.1z"/>
			</g>
			<g id="Group_00000140737331211410031770000016929886098324189598_" transform="translate(2.000000, 2.000000)">
				<g id="Rectangle-12">
					<g id="Mask_00000060747887857231330830000009069334293731981467_">
						<path id="path-5" class="st2" d="M0,3c0-1.6,1.3-3,3-3H42c1.6,0,3,1.3,3,3V42c0,1.6-1.3,3-3,3H3c-1.6,0-3-1.3-3-3V3z"/>
					</g>
					<g id="Clipped">
						<g id="Rectangle-path-Clipped">
							<defs>
								
									<filter id="Adobe_OpacityMaskFilter_00000178917859536069902060000007214052553874901902_" filterUnits="userSpaceOnUse" x="-0.9" y="37" width="47.1" height="9.8">
									<feColorMatrix  type="matrix" values="1 0 0 0 0  0 1 0 0 0  0 0 1 0 0  0 0 0 1 0"/>
								</filter>
							</defs>
							
								<mask maskUnits="userSpaceOnUse" x="-0.9" y="37" width="47.1" height="9.8" id="mask-4_00000099637819688404001730000010661101537875651724_">
								<g style="filter:url(#Adobe_OpacityMaskFilter_00000178917859536069902060000007214052553874901902_);">
									<path id="path-3_00000018238719711152020770000001387286601435596695_" class="st3" d="M0,3c0-1.6,1.3-3,3-3H42
										c1.6,0,3,1.3,3,3V42c0,1.6-1.3,3-3,3H3c-1.6,0-3-1.3-3-3V3z"/>
								</g>
							</mask>
							<rect id="Rectangle-path" x="-0.9" y="37" class="st14" width="47.1" height="9.8"/>
						</g>
					</g>
				</g>
				<path id="Shape_00000165214586172264764600000013793760765144033719_" class="st3" d="M12.3,12.4c1.3-1.3,3.2-1.7,5-1.8
					c1.9,0,3.8,0,5.7,0c0,2,0,4,0,6c-1.2,0-2.5,0-3.7,0c-0.8,0-1.6,0.5-1.7,1.3c0,1.3,0,2.7,0,4c1.8,0,3.6,0,5.4,0
					c-0.1,1.9-0.4,3.9-0.7,5.8c-1.6,0-3.2,0-4.8,0c0,5.7,0,11.4,0,17.2c-2.4,0-4.7,0-7.1,0c0-5.7,0-11.4,0-17.2c-1.2,0-2.3,0-3.5,0
					c0-1.9,0-3.8,0-5.8c1.2,0,2.3,0,3.5,0c0-1.9,0-3.7,0-5.6C10.7,14.9,11.2,13.5,12.3,12.4z"/>
			</g>
			<g id="Group-3" transform="translate(82.000000, 171.000000)">
				<path id="Combined-Shape_00000158735892112423415990000001358213439939903134_" class="st15" d="M43.6,13.2L26,4.3L8.4,13.2
					v16.4c0,0.8,0.6,1.8,1.3,2.1l14.9,7.6c0.7,0.4,1.9,0.4,2.6,0l14.8-7.6c0.7-0.4,1.3-1.3,1.3-2.2V13.3L43.6,13.2z"/>
				<path id="Combined-Shape_00000111872322679194187970000003390228655721787281_" class="st2" d="M18.2,0.4
					c-0.7-0.4-1.9-0.4-2.6,0L0.7,7.9C0,8.3,0,8.9,0.7,9.3l7.7,3.9L26,4.3L18.2,0.4z"/>
				<path id="Combined-Shape-Copy-2" class="st2" d="M18.2,25.9c-0.7,0.4-1.9,0.4-2.6,0L0.7,18.4C0,18,0,17.4,0.7,17l7.7-3.9L26,22
					L18.2,25.9z"/>
				<path id="Combined-Shape-Copy" class="st2" d="M33.8,0.4c0.7-0.4,1.9-0.4,2.6,0l14.9,7.6c0.7,0.4,0.7,1,0,1.3l-7.7,3.9L26,4.3
					L33.8,0.4z"/>
				<path id="Combined-Shape-Copy-3" class="st2" d="M33.8,25.9c0.7,0.4,1.9,0.4,2.6,0l14.9-7.6c0.7-0.4,0.7-1,0-1.3l-7.7-3.9L26,22
					L33.8,25.9z"/>
			</g>
			<g id="Group_00000045581409433598666830000018213466751600258474_" transform="translate(168.000000, 169.000000)">
				<path id="Fill-1_00000031173011734495716580000003788281650617308289_" class="st2" d="M7.6,28.6v13.8h30c1.5,0,3.4-1.1,4.1-2.4
					L48,28.6H7.6z"/>
				<path id="Fill-2" class="st8" d="M15.6,0L0.8,26.2c-0.8,1.3-0.8,3.5,0,4.9l6.3,11.4l18.4-32.3L15.6,0z"/>
				<path id="Fill-3" class="st16" d="M15.6,0l16.3,28.6h15.5L32.6,2.4C31.9,1.1,30,0,28.5,0H15.6z"/>
			</g>
			<g id="Group-3_00000009552351216687380590000016804739941678848390_" transform="translate(253.000000, 167.000000)">
				<g id="Group-2_00000115511680000834260690000009675333129091786685_">
					<g id="Mask_00000137093055113717991570000010840967482880006836_">
						<path id="path-7" class="st7" d="M0,3c0-1.6,1.3-3,3-3H42c1.6,0,3,1.3,3,3V42c0,1.6-1.3,3-3,3H3c-1.6,0-3-1.3-3-3V3z"/>
					</g>
					<g id="Clipped_00000140704519833530292440000017689036675415359913_">
						<g id="Group-Clipped">
							<defs>
								
									<filter id="Adobe_OpacityMaskFilter_00000168101947279865637280000014096264957652516481_" filterUnits="userSpaceOnUse" x="-1.2" y="-2.4" width="48.6" height="49.8">
									<feColorMatrix  type="matrix" values="1 0 0 0 0  0 1 0 0 0  0 0 1 0 0  0 0 0 1 0"/>
								</filter>
							</defs>
							
								<mask maskUnits="userSpaceOnUse" x="-1.2" y="-2.4" width="48.6" height="49.8" id="mask-6_00000045577039285029312920000008688962155047333036_">
								<g style="filter:url(#Adobe_OpacityMaskFilter_00000168101947279865637280000014096264957652516481_);">
									<path id="path-5_00000003080394637091331940000008391574545943896485_" class="st3" d="M0,3c0-1.6,1.3-3,3-3H42
										c1.6,0,3,1.3,3,3V42c0,1.6-1.3,3-3,3H3c-1.6,0-3-1.3-3-3V3z"/>
								</g>
							</mask>
							<g id="Group_00000151517994373134132400000009263438642173077421_" class="st18">
								<g transform="translate(-2.000000, -3.000000)">
									<g transform="translate(0.519737, 0.335526)">
										<polygon id="Path-16" class="st2" points="2.8,47.2 23.4,27.1 46,48.3 3,48.4 										"/>
										<polygon id="Path-17" class="st8" points="1.5,1.9 1.2,46.1 46.7,1.5 										"/>
										<polygon id="Path-18" class="st7" points="47.7,3.2 25.5,25.4 48,48.5 										"/>
										<polygon id="Path-14" class="st16" points="4.5,48.9 48.9,4.5 44.7,0.3 0.3,44.7 										"/>
										<polygon id="Path-15" class="st16" points="24,29.3 44.7,50.1 48.9,45.9 28.1,25.1 										"/>
									</g>
								</g>
							</g>
						</g>
					</g>
				</g>
				<path id="Oval-14" class="st5" d="M20.3,37.5c1.1,1.2,2.8,1.2,3.9,0c0,0,10-11,10-17.6S28.8,8,22.2,8s-11.9,5.3-11.9,11.9
					S20.3,37.5,20.3,37.5z"/>
				<path id="G_00000086662988352653589160000008119388018847276454_" class="st3" d="M22.3,19.1v2.7h4.4c-0.7,1.7-2.4,2.8-4.4,2.8
					c-2.7,0-4.8-2.1-4.8-4.8s2.1-4.8,4.8-4.8c1.9,0,3.4,1,4.2,2.5l3-1.6c-1.4-2.6-4.1-4.4-7.3-4.4c-4.6,0-8.2,3.7-8.2,8.2
					s3.7,8.2,8.2,8.2c4.5,0,8.2-3.7,8.2-8.2v-0.8H22.3z"/>
			</g>
			<g id="Group-2_00000018947845497819413470000010364173374173411725_" transform="translate(3.000000, 166.000000)">
				<path id="Combined-Shape_00000012450125884358939840000003807865874574355333_" class="st2" d="M0,22.6C0.2,10.1,10.4,0,23,0
					c12.7,0,23,10.3,23,23c0,12.3-9.6,22.3-21.7,23c-0.1,0-0.3,0-0.5,0h-21C1.3,46,0,44.7,0,43.2V22.7C0,22.7,0,22.6,0,22.6z"/>
				<polygon id="path4213" class="st3" points="21.3,18.5 12.5,27.8 20.5,23.4 24.7,27.8 33.5,18.5 25.5,22.8 				"/>
			</g>
		</g>
		<path id="Line" class="st19" d="M42.5,40H82"/>
		<path id="Line-Copy" class="st19" d="M317,40h42"/>
		<polyline id="Line_00000101804372177880650230000007385220126536566406_" class="st20" points="134,33 205.2,33 264,33 		"/>
	</g>
</g>
</svg>
