<svg xmlns="http://www.w3.org/2000/svg" xmlns:xlink="http://www.w3.org/1999/xlink" width="192" height="192" viewBox="0 0 192 192">
  <defs>
    <path id="a" d="M84.5961937,34.7281433 L97.701377,28.0886581 C100.156747,26.8446926 100.163716,24.8193264 97.7022953,23.5722959 L72.2554938,10.6801707 C69.7945762,9.43339485 65.8029117,9.43334849 63.3409842,10.680636 L50.0425219,17.4180423 L84.2096355,34.7281433 L50.0425219,52.0382443 L63.3409842,58.7756506 C65.8029117,60.0229381 69.7945762,60.0228917 72.2554938,58.7761159 L97.7022953,45.8839907 C100.163716,44.6369602 100.156747,42.611594 97.701377,41.3676285 L84.5961937,34.7281433 Z M15.7903645,34.7281433 L49.9574781,17.4180423 L36.6590158,10.680636 C34.1970883,9.43334849 30.2054238,9.43339485 27.7445062,10.6801707 L2.29770469,23.5722959 C-0.163715554,24.8193264 -0.156747438,26.8446926 2.29862303,28.0886581 L15.4038063,34.7281433 L2.29862303,41.3676285 C-0.156747438,42.611594 -0.163715554,44.6369602 2.29770469,45.8839907 L27.7445062,58.7761159 C30.2054238,60.0228917 34.1970883,60.0229381 36.6590158,58.7756506 L49.9574781,52.0382443 L15.7903645,34.7281433 Z"/>
    <path id="b" d="M26.0505517,0.947994895 L11.9166667,8.15265052 L11.9166667,21.5715514 C11.9166667,22.11854 12.3244236,22.7698132 12.8008045,23.0126452 L25.1664138,29.3159339 C25.6547097,29.5648395 26.4553918,29.5572791 26.9390108,29.3072052 L39.1948742,22.9698372 C39.6855566,22.7161108 40.0833333,22.0649811 40.0833333,21.5008142 L40.0833333,8.15265052 L26.0505517,0.947994895 Z"/>
    <path id="c" d="M14.133885,12.9378837 L-3.55271368e-15,20.1425393 L-3.55271368e-15,33.5614402 C-3.55271368e-15,34.1084287 0.407756953,34.759702 0.884137807,35.002534 L13.2497472,41.3058227 C13.738043,41.5547283 14.5387252,41.5471679 15.0223441,41.297094 L27.2782075,34.9597259 C27.76889,34.7059996 28.1666667,34.0548699 28.1666667,33.490703 L28.1666667,20.1425393 L14.133885,12.9378837 Z"/>
    <path id="d" d="M37.9672183,14.0278736 L23.8333333,21.2325292 L23.8333333,34.6514301 C23.8333333,35.1984186 24.2410903,35.8496919 24.7174711,36.0925239 L37.0830805,42.3958126 C37.5713763,42.6447182 38.3720585,42.6371578 38.8556775,42.3870839 L51.1115408,36.0497158 C51.6022233,35.7959895 52,35.1448598 52,34.5806928 L52,21.2325292 L37.9672183,14.0278736 Z"/>
    <path id="e" d="M27.133885,19.477823 L13,26.6824786 L13,40.1013795 C13,40.6483681 13.407757,41.2996413 13.8841378,41.5424733 L26.2497472,47.845762 C26.738043,48.0946676 27.5387252,48.0871072 28.0223441,47.8370333 L40.2782075,41.4996653 C40.76889,41.2459389 41.1666667,40.5948093 41.1666667,40.0306423 L41.1666667,26.6824786 L27.133885,19.477823 Z"/>
  </defs>
  <g fill="none" fill-rule="evenodd">
    <rect width="152" height="152" x="20" y="20" fill="#D3B69A" rx="10"/>
    <g transform="translate(50 53)">
      <path fill="#FFFFFF" d="M49.9667016,17.3402067 L15.4829733,34.8107143 L15.4829733,64.745534 C15.4829733,67.5103794 17.4860155,70.7665317 19.938131,72.0088482 L45.5115439,84.9651185 C47.9720595,86.2116907 51.9554154,86.2001758 54.4074996,84.9399742 L79.7629607,71.9090215 C82.2155458,70.6485624 84.2037588,67.3958953 84.2037588,64.6199419 L84.2037588,34.8107143 L49.9667016,17.3402067 Z"/>
      <use fill="#FFFFFF" xlink:href="#a"/>
      <path stroke="#D3B69A" stroke-width="3" d="M87.9152249,34.7281433 L98.3792856,29.4267312 C101.9321,27.6267674 101.936429,24.0359145 98.380204,22.2342227 L72.9334024,9.34209751 C70.0461415,7.87932312 65.5509669,7.87946902 62.6630756,9.34256277 L49.3646132,16.0799691 L46.7234907,17.4180423 L49.3646132,18.7561155 L80.8906043,34.7281433 L49.3646132,50.7001711 L46.7234907,52.0382443 L49.3646132,53.3763175 L62.6630756,60.1137238 C65.5509669,61.5768176 70.0461415,61.5769635 72.9334024,60.1141891 L98.380204,47.2220639 C101.936429,45.4203721 101.9321,41.8295192 98.3792856,40.0295553 L87.9152249,34.7281433 Z M19.1093957,34.7281433 L50.6353868,18.7561155 L53.2765093,17.4180423 L50.6353868,16.0799691 L37.3369244,9.34256277 C34.4490331,7.87946902 29.9538585,7.87932312 27.0665976,9.34209751 L1.61979603,22.2342227 C-1.9364287,24.0359145 -1.9320997,27.6267674 1.62071438,29.4267312 L12.0847751,34.7281433 L1.62071438,40.0295553 C-1.9320997,41.8295192 -1.9364287,45.4203721 1.61979603,47.2220639 L27.0665976,60.1141891 C29.9538585,61.5769635 34.4490331,61.5768176 37.3369244,60.1137238 L50.6353868,53.3763175 L53.2765093,52.0382443 L50.6353868,50.7001711 L19.1093957,34.7281433 Z"/>
      <g transform="translate(23)">
        <g transform="rotate(-180 26 15.223)">
          <use fill="#FFFFFF" xlink:href="#b"/>
          <path stroke="#D3B69A" stroke-width="3" d="M25.3693346,-0.388397011 L11.2354496,6.81625861 L10.4166667,7.23362787 L10.4166667,8.15265052 L10.4166667,21.5715514 C10.4166667,22.6799465 11.1384086,23.8488876 12.1195874,24.3490371 L24.4851968,30.6523258 C25.4034815,31.1204155 26.7142076,31.1121184 27.6279847,30.6396147 L39.883848,24.3022466 C40.8754667,23.7894919 41.5833333,22.6226877 41.5833333,21.5008142 L41.5833333,8.15265052 L41.5833333,7.23662779 L40.7684375,6.81824715 L26.7356558,-0.386408466 L26.0530038,-0.736892944 L25.3693346,-0.388397011 Z"/>
        </g>
        <g transform="rotate(-180 14.083 27.213)">
          <use fill="#FFFFFF" xlink:href="#c"/>
          <path stroke="#D3B69A" stroke-width="3" d="M13.4526679,11.6014918 L-0.681217052,18.8061474 L-1.5,19.2235166 L-1.5,20.1425393 L-1.5,33.5614402 C-1.5,34.6698352 -0.778258099,35.8387764 0.202920755,36.3389259 L12.5685301,42.6422146 C13.4868149,43.1103042 14.797541,43.1020072 15.711318,42.6295035 L27.9671814,36.2921354 C28.9588,35.7793807 29.6666667,34.6125765 29.6666667,33.490703 L29.6666667,20.1425393 L29.6666667,19.2265166 L28.8517708,18.8081359 L14.8189891,11.6034803 L14.1363372,11.2529958 L13.4526679,11.6014918 Z"/>
        </g>
        <g transform="rotate(-180 37.917 28.303)">
          <use fill="#FFFFFF" xlink:href="#d"/>
          <path stroke="#D3B69A" stroke-width="3" d="M37.2860013,12.6914817 L23.1521163,19.8961373 L22.3333333,20.3135065 L22.3333333,21.2325292 L22.3333333,34.6514301 C22.3333333,35.7598251 23.0550752,36.9287663 24.0362541,37.4289158 L36.4018635,43.7322045 C37.3201482,44.2002941 38.6308743,44.1919971 39.5446513,43.7194934 L51.8005147,37.3821253 C52.7921333,36.8693706 53.5,35.7025664 53.5,34.5806928 L53.5,21.2325292 L53.5,20.3165065 L52.6851041,19.8981258 L38.6523225,12.6934702 L37.9696705,12.3429857 L37.2860013,12.6914817 Z"/>
        </g>
        <g transform="rotate(-180 27.083 33.753)">
          <use fill="#FFFFFF" xlink:href="#e"/>
          <path stroke="#D3B69A" stroke-width="3" d="M26.4526679,18.1414311 L12.3187829,25.3460867 L11.5,25.763456 L11.5,26.6824786 L11.5,40.1013795 C11.5,41.2097746 12.2217419,42.3787157 13.2029208,42.8788652 L25.5685301,49.1821539 C26.4868149,49.6502436 27.797541,49.6419466 28.711318,49.1694428 L40.9671814,42.8320748 C41.9588,42.31932 42.6666667,41.1525158 42.6666667,40.0306423 L42.6666667,26.6824786 L42.6666667,25.7664559 L41.8517708,25.3480753 L27.8189891,18.1434196 L27.1363372,17.7929352 L26.4526679,18.1414311 Z"/>
        </g>
      </g>
    </g>
  </g>
</svg>
