<svg xmlns="http://www.w3.org/2000/svg" width="192" height="192" viewBox="0 0 192 192">
  <g fill="none" fill-rule="evenodd">
    <rect width="152" height="152" x="20" y="20" fill="#9ABEFF" rx="10"/>
    <g transform="translate(64 59)">
      <path fill="#FFFFFF" d="M53.1580119,18.7462848 C55.3058104,8.59702234 48.5044486,0 36.5722349,0 L12.7078076,0 L0,59.701544 L15.5118778,59.701544 L20.2251022,37.4328681 L28.5776518,37.4328681 C40.5098654,37.4328681 51.0102135,28.8955473 53.1580119,18.7462848 L53.1580119,18.7462848 Z"/>
      <path fill="#000000" fill-opacity=".25" d="M65.4630967,33.2985236 C67.6108952,23.1492611 60.8095334,14.5522388 48.8773197,14.5522388 L25.0128923,14.5522388 L12.3050847,74.2537828 L27.8169625,74.2537828 L32.5301869,51.9851069 L40.8827365,51.9851069 C52.8149502,51.9851069 63.3152982,43.4477861 65.4630967,33.2985236 L65.4630967,33.2985236 Z"/>
    </g>
  </g>
</svg>
