<svg xmlns="http://www.w3.org/2000/svg" xmlns:xlink="http://www.w3.org/1999/xlink" width="416" height="425" viewBox="0 0 416 425">
  <defs>
    <path id="a" d="M44.9678878,20.1311426 C44.8830705,19.1574911 44.5742274,18.1725944 43.4496437,17.2027377 C41.8992875,15.8656887 26.2886027,2.2632138 26.2886027,2.2632138 C23.7590255,-2.13162821e-14 23.0642348,0.0162372439 22.5000001,-2.13162821e-14 L22.4996532,0.000882709358 C21.9354805,0.0171034248 21.2404564,0.00133627467 18.7113973,2.26408654 C18.7113973,2.26408654 3.10071252,15.8665614 1.55035626,17.2036104 C0.425772611,18.1734672 0.116929457,19.1583638 0.0321122064,20.1320153 C0.116929457,21.1056668 0.425772611,22.0905635 1.55035626,23.0604202 C3.10071252,24.3974692 16.4401938,33.4530444 18.6606417,34.7915172 C21.636814,36.6404606 21.9357653,36.4189514 22.5,36.4351886 C23.0643009,36.4181276 23.3635151,36.6393834 26.3393583,34.7906445 C28.5598062,33.4521716 41.8992875,24.3965965 43.4496437,23.0595475 C44.5742274,22.0896907 44.8830705,21.1047941 44.9678878,20.1311426 L44.9678878,20.1311426 Z"/>
    <path id="b" d="M41.1513158,24.7616794 C36.8218133,27.8361293 28.0970161,33.7311388 26.3393583,34.7906445 C23.3638391,36.6391821 23.064366,36.4181758 22.5,36.4351886 C21.9357653,36.4189514 21.636814,36.6404606 18.6606417,34.7915172 C16.9029839,33.7320115 8.1781867,27.837002 3.84868421,24.7625521 L3.84868421,6.21710526 L41.1513158,6.21710526 L41.1513158,24.7616794 L41.1513158,24.7616794 Z"/>
    <path id="d" d="M0,2.96127157 C0,1.32580644 1.32542865,0 2.96127157,0 L42.0387284,0 C43.6741936,0 45,1.32542865 45,2.96127157 L45,42.0387284 C45,43.6741936 43.6745714,45 42.0387284,45 L2.96127157,45 C1.32580644,45 0,43.6745714 0,42.0387284 L0,2.96127157 Z"/>
    <path id="f" d="M0,2.96127157 C0,1.32580644 1.32542865,0 2.96127157,0 L42.0387284,0 C43.6741936,0 45,1.32542865 45,2.96127157 L45,42.0387284 C45,43.6741936 43.6745714,45 42.0387284,45 L2.96127157,45 C1.32580644,45 0,43.6745714 0,42.0387284 L0,2.96127157 Z"/>
    <linearGradient id="h" x1="6.642%" x2="80.35%" y1="2.895%" y2="51.769%">
      <stop offset="0%" stop-color="#FFFFFF"/>
      <stop offset="100%" stop-color="#FFFFFF" stop-opacity="0"/>
    </linearGradient>
  </defs>
  <g fill="none" fill-rule="evenodd" transform="translate(9 12)">
    <rect width="399" height="790" fill="#222222" rx="22"/>
    <rect width="375" height="667" x="12" y="61" fill="#4A4A4A" rx="5"/>
    <g transform="translate(49 136)">
      <g transform="translate(0 83)">
        <circle cx="24.5" cy="24.5" r="24.5" fill="#9ABEFF"/>
        <polygon fill="#FFFFFF" points="20.007 19.979 20.007 19.955 20.079 19.955 20.079 19.931 20.15 19.931 20.15 19.907 20.221 19.907 20.221 19.884 20.293 19.884 20.293 19.86 20.34 19.86 20.34 19.836 20.412 19.836 20.412 19.812 20.483 19.812 20.483 19.789 20.554 19.789 20.554 19.765 20.626 19.765 20.626 19.741 20.697 19.741 20.697 19.717 20.769 19.717 20.769 19.693 20.84 19.693 20.84 19.67 20.911 19.67 20.911 19.646 20.959 19.646 20.959 19.622 21.03 19.622 21.03 19.598 21.102 19.598 21.102 19.575 21.173 19.575 21.173 19.551 21.244 19.551 21.244 19.527 21.316 19.527 21.316 19.503 21.363 19.503 21.363 19.479 21.435 19.479 21.435 19.456 21.506 19.456 21.506 19.432 21.578 19.432 21.578 19.408 21.625 19.408 21.625 19.384 21.697 19.384 21.697 19.361 21.768 19.361 21.768 19.337 21.839 19.337 21.839 19.313 21.887 19.313 21.887 19.289 21.958 19.289 21.958 19.265 22.03 19.265 22.03 19.242 22.101 19.242 22.101 19.218 22.149 19.218 22.149 19.194 22.22 19.194 22.22 19.17 22.291 19.17 22.291 19.147 22.363 19.147 22.363 19.123 22.41 19.123 22.41 19.099 22.482 19.099 22.482 19.075 22.553 19.075 22.553 19.051 22.625 19.051 22.625 19.028 22.672 19.028 22.672 19.004 22.744 19.004 22.744 18.98 22.815 18.98 22.815 18.956 22.886 18.956 22.886 18.932 22.934 18.932 22.934 18.909 23.005 18.909 23.005 18.885 23.077 18.885 23.077 18.861 23.148 18.861 23.148 18.837 23.196 18.837 23.196 18.814 23.267 18.814 23.267 18.79 23.338 18.79 23.338 18.766 23.41 18.766 23.41 18.742 23.457 18.742 23.457 18.718 23.529 18.718 23.529 18.695 23.6 18.695 23.6 18.671 23.672 18.671 23.672 18.647 23.719 18.647 23.719 18.623 23.79 18.623 23.79 18.6 23.862 18.6 23.862 18.576 23.933 18.576 23.933 18.552 23.981 18.552 23.981 18.528 24.052 18.528 24.052 18.504 24.124 18.504 24.124 18.481 24.171 18.481 24.171 18.457 24.243 18.457 24.243 18.433 24.314 18.433 24.314 18.409 24.385 18.409 24.385 18.386 24.433 18.386 24.433 18.362 24.504 18.362 24.504 18.338 24.576 18.338 24.576 18.314 24.647 18.314 24.647 18.29 24.695 18.29 24.695 18.267 24.766 18.267 24.766 18.243 24.837 18.243 24.837 18.219 24.909 18.219 24.909 18.195 24.98 18.195 24.98 18.172 25.028 18.172 25.028 18.148 25.099 18.148 25.099 18.124 25.171 18.124 25.171 18.1 25.218 18.1 25.218 18.076 25.29 18.076 25.29 18.053 25.361 18.053 25.361 18.029 25.432 18.029 25.432 18.005 25.504 18.005 25.504 17.981 25.551 17.981 25.551 17.958 25.623 17.958 25.623 17.934 25.694 17.934 25.694 17.91 25.742 17.91 25.742 17.886 25.813 17.886 25.813 17.862 25.884 17.862 25.884 17.839 25.956 17.839 25.956 17.815 26.027 17.815 26.027 17.791 26.075 17.791 26.075 17.767 26.146 17.767 26.146 17.743 26.217 17.743 26.217 17.72 26.289 17.72 26.289 17.696 26.336 17.696 26.336 17.672 26.408 17.672 26.408 17.648 26.479 17.648 26.479 17.625 26.551 17.625 26.551 17.601 26.598 17.601 26.598 17.577 26.67 17.577 26.67 17.553 26.741 17.553 26.741 17.529 26.812 17.529 26.812 17.506 26.884 17.506 26.884 17.482 26.931 17.482 26.931 17.458 27.003 17.458 27.003 17.434 27.074 17.434 27.074 17.411 27.145 17.411 27.145 17.387 27.217 17.387 27.217 17.363 27.264 17.363 27.264 17.339 27.336 17.339 27.336 17.315 27.407 17.315 27.407 17.292 27.479 17.292 27.479 17.268 27.55 17.268 27.55 17.244 27.598 17.244 27.598 17.22 27.669 17.22 27.669 17.197 27.74 17.197 27.74 17.173 27.812 17.173 27.812 17.149 27.883 17.149 27.883 17.125 27.954 17.125 27.954 17.101 28.002 17.101 28.002 17.078 28.073 17.078 28.073 17.054 28.145 17.054 28.145 17.03 28.216 17.03 28.216 17.006 28.288 17.006 28.288 16.983 28.359 16.983 28.359 16.959 28.407 16.959 28.407 16.935 28.478 16.935 28.478 16.911 28.549 16.911 28.549 16.887 28.621 16.887 28.621 16.864 28.692 16.864 28.692 16.84 28.763 16.84 28.763 16.816 28.811 16.816 28.811 16.792 28.882 16.792 28.882 16.769 28.954 16.769 28.954 16.745 29.025 16.745 29.025 16.721 29.097 16.721 29.097 16.697 29.168 16.697 29.168 16.673 29.239 16.673 29.239 16.65 29.311 16.65 29.311 16.626 29.358 16.626 29.358 16.602 29.453 16.602 29.453 16.578 29.501 16.578 29.501 16.554 29.572 16.554 29.572 16.531 29.644 16.531 29.644 16.507 29.715 16.507 29.715 16.483 29.787 16.483 29.787 16.459 29.858 16.459 29.858 16.436 29.929 16.436 29.929 16.412 30.001 16.412 30.001 16.388 30.072 16.388 30.072 16.364 30.144 16.364 30.144 16.34 30.215 16.34 30.215 16.317 30.31 16.317 30.31 16.293 30.381 16.293 30.381 16.269 30.453 16.269 30.453 16.245 30.524 16.245 30.524 16.222 30.619 16.222 30.619 16.198 30.691 16.198 30.691 16.174 30.786 16.174 30.786 16.15 30.857 16.15 30.857 16.126 30.953 16.126 30.953 16.103 31.048 16.103 31.048 16.079 31.143 16.079 31.143 16.055 31.262 16.055 31.262 16.031 31.405 16.031 31.405 16.008 31.547 16.008 31.547 15.984 31.738 15.984 31.738 15.96 32.19 15.96 32.19 15.984 32.333 15.984 32.333 16.008 32.428 16.008 32.428 16.031 32.499 16.031 32.499 16.055 32.547 16.055 32.547 16.079 32.594 16.079 32.594 16.103 32.642 16.103 32.642 16.126 32.666 16.126 32.666 16.15 32.713 16.15 32.713 16.174 32.737 16.174 32.737 16.198 32.761 16.198 32.761 16.222 32.785 16.222 32.785 16.245 32.808 16.245 32.808 16.269 32.832 16.269 32.832 16.293 32.856 16.293 32.856 16.34 32.88 16.34 32.88 16.364 32.904 16.364 32.904 16.412 32.927 16.412 32.927 16.459 32.951 16.459 32.951 16.531 32.975 16.531 32.975 16.602 32.999 16.602 32.999 16.697 33.023 16.697 33.023 16.816 33.046 16.816 33.046 17.363 33.023 17.363 33.023 17.577 32.999 17.577 32.999 17.72 32.975 17.72 32.975 17.839 32.951 17.839 32.951 17.958 32.927 17.958 32.927 18.076 32.904 18.076 32.904 18.172 32.88 18.172 32.88 18.267 32.856 18.267 32.856 18.362 32.832 18.362 32.832 18.457 32.808 18.457 32.808 18.528 32.785 18.528 32.785 18.623 32.761 18.623 32.761 18.718 32.737 18.718 32.737 18.79 32.713 18.79 32.713 18.885 32.69 18.885 32.69 18.956 32.666 18.956 32.666 19.051 32.642 19.051 32.642 19.123 32.618 19.123 32.618 19.218 32.594 19.218 32.594 19.289 32.571 19.289 32.571 19.361 32.547 19.361 32.547 19.456 32.523 19.456 32.523 19.527 32.499 19.527 32.499 19.598 32.475 19.598 32.475 19.693 32.452 19.693 32.452 19.765 32.428 19.765 32.428 19.836 32.404 19.836 32.404 19.907 32.38 19.907 32.38 19.979 32.356 19.979 32.356 20.074 32.333 20.074 32.333 20.145 32.309 20.145 32.309 20.217 32.285 20.217 32.285 20.288 32.261 20.288 32.261 20.359 32.237 20.359 32.237 20.454 32.214 20.454 32.214 20.526 32.19 20.526 32.19 20.597 32.166 20.597 32.166 20.668 32.142 20.668 32.142 20.74 32.118 20.74 32.118 20.811 32.095 20.811 32.095 20.882 32.071 20.882 32.071 20.954 32.047 20.954 32.047 21.049 32.023 21.049 32.023 21.12 31.999 21.12 31.999 21.192 31.976 21.192 31.976 21.263 31.952 21.263 31.952 21.334 31.928 21.334 31.928 21.406 31.904 21.406 31.904 21.477 31.881 21.477 31.881 21.548 31.857 21.548 31.857 21.62 31.833 21.62 31.833 21.691 31.809 21.691 31.809 21.762 31.785 21.762 31.785 21.834 31.762 21.834 31.762 21.905 31.738 21.905 31.738 21.976 31.714 21.976 31.714 22.048 31.69 22.048 31.69 22.119 31.666 22.119 31.666 22.19 31.643 22.19 31.643 22.262 31.619 22.262 31.619 22.333 31.595 22.333 31.595 22.404 31.571 22.404 31.571 22.476 31.547 22.476 31.547 22.547 31.524 22.547 31.524 22.618 31.5 22.618 31.5 22.69 31.476 22.69 31.476 22.761 31.452 22.761 31.452 22.832 31.428 22.832 31.428 22.904 31.405 22.904 31.405 22.975 31.381 22.975 31.381 23.046 31.357 23.046 31.357 23.118 31.333 23.118 31.333 23.189 31.309 23.189 31.309 23.26 31.286 23.26 31.286 23.332 31.262 23.332 31.262 23.403 31.238 23.403 31.238 23.474 31.214 23.474 31.214 23.546 31.19 23.546 31.19 23.617 31.167 23.617 31.167 23.688 31.143 23.688 31.143 23.76 31.119 23.76 31.119 23.831 31.095 23.831 31.095 23.902 31.072 23.902 31.072 23.974 31.048 23.974 31.048 24.021 31.024 24.021 31.024 24.093 31 24.093 31 24.164 30.976 24.164 30.976 24.235 30.953 24.235 30.953 24.307 30.929 24.307 30.929 24.378 30.905 24.378 30.905 24.449 30.881 24.449 30.881 24.521 30.857 24.521 30.857 24.592 30.834 24.592 30.834 24.663 30.81 24.663 30.81 24.735 30.786 24.735 30.786 24.782 30.762 24.782 30.762 24.854 30.738 24.854 30.738 24.925 30.715 24.925 30.715 24.996 30.691 24.996 30.691 25.068 30.667 25.068 30.667 25.139 30.643 25.139 30.643 25.21 30.619 25.21 30.619 25.282 30.596 25.282 30.596 25.353 30.572 25.353 30.572 25.424 30.548 25.424 30.548 25.472 30.524 25.472 30.524 25.543 30.5 25.543 30.5 25.615 30.477 25.615 30.477 25.686 30.453 25.686 30.453 25.757 30.429 25.757 30.429 25.829 30.405 25.829 30.405 25.9 30.381 25.9 30.381 25.971 30.358 25.971 30.358 26.019 30.334 26.019 30.334 26.09 30.31 26.09 30.31 26.162 30.286 26.162 30.286 26.233 30.263 26.233 30.263 26.304 30.239 26.304 30.239 26.376 30.215 26.376 30.215 26.447 30.191 26.447 30.191 26.518 30.167 26.518 30.167 26.566 30.144 26.566 30.144 26.637 30.12 26.637 30.12 26.709 30.096 26.709 30.096 26.78 30.072 26.78 30.072 26.851 30.048 26.851 30.048 26.923 30.025 26.923 30.025 26.97 30.001 26.97 30.001 27.041 29.977 27.041 29.977 27.113 29.953 27.113 29.953 27.184 29.929 27.184 29.929 27.255 29.906 27.255 29.906 27.327 29.882 27.327 29.882 27.374 29.858 27.374 29.858 27.446 29.834 27.446 29.834 27.517 29.81 27.517 29.81 27.588 29.787 27.588 29.787 27.66 29.763 27.66 29.763 27.731 29.739 27.731 29.739 27.779 29.715 27.779 29.715 27.85 29.691 27.85 29.691 27.921 29.668 27.921 29.668 27.993 29.644 27.993 29.644 28.064 29.62 28.064 29.62 28.112 29.596 28.112 29.596 28.183 29.572 28.183 29.572 28.254 29.549 28.254 29.549 28.326 29.525 28.326 29.525 28.397 29.501 28.397 29.501 28.444 29.477 28.444 29.477 28.516 29.453 28.516 29.453 28.587 29.43 28.587 29.43 28.658 29.406 28.658 29.406 28.73 29.382 28.73 29.382 28.777 29.358 28.777 29.358 28.849 29.335 28.849 29.335 28.92 29.311 28.92 29.311 28.991 29.287 28.991 29.287 29.039 29.263 29.039 29.263 29.11 29.239 29.11 29.239 29.182 29.216 29.182 29.216 29.253 29.192 29.253 29.192 29.301 29.168 29.301 29.168 29.372 29.144 29.372 29.144 29.443 29.12 29.443 29.12 29.515 29.097 29.515 29.097 29.586 29.073 29.586 29.073 29.657 29.049 29.657 29.049 29.705 29.025 29.705 29.025 29.776 29.001 29.776 29.001 29.847 28.978 29.847 28.978 29.919 28.954 29.919 28.954 29.99 28.93 29.99 28.93 30.061 28.906 30.061 28.906 30.133 28.882 30.133 28.882 30.204 28.859 30.204 28.859 30.276 28.835 30.276 28.835 30.347 28.811 30.347 28.811 30.418 28.787 30.418 28.787 30.49 28.763 30.49 28.763 30.561 28.74 30.561 28.74 30.632 28.716 30.632 28.716 30.704 28.692 30.704 28.692 30.775 28.668 30.775 28.668 30.846 28.644 30.846 28.644 30.894 28.621 30.894 28.621 30.965 28.597 30.965 28.597 31.036 28.573 31.036 28.573 31.108 28.549 31.108 28.549 31.179 28.526 31.179 28.526 31.25 28.502 31.25 28.502 31.322 28.478 31.322 28.478 31.393 28.454 31.393 28.454 31.464 28.43 31.464 28.43 31.536 28.407 31.536 28.407 31.607 28.383 31.607 28.383 31.679 28.359 31.679 28.359 31.75 28.335 31.75 28.335 31.821 28.311 31.821 28.311 31.893 28.288 31.893 28.288 31.94 28.264 31.94 28.264 32.011 28.24 32.011 28.24 32.083 28.216 32.083 28.216 32.154 28.192 32.154 28.192 32.225 28.169 32.225 28.169 32.297 28.145 32.297 28.145 32.368 28.121 32.368 28.121 32.439 28.097 32.439 28.097 32.487 28.073 32.487 28.073 32.558 28.05 32.558 28.05 32.63 28.026 32.63 28.026 32.701 28.002 32.701 28.002 32.749 27.978 32.749 27.978 32.82 27.954 32.82 27.954 32.891 27.931 32.891 27.931 32.963 27.907 32.963 27.907 33.01 27.883 33.01 27.883 33.082 27.859 33.082 27.859 33.153 27.835 33.153 27.835 33.224 27.812 33.224 27.812 33.272 27.788 33.272 27.788 33.343 27.764 33.343 27.764 33.391 27.74 33.391 27.74 33.462 27.717 33.462 27.717 33.51 27.693 33.51 27.693 33.581 27.669 33.581 27.669 33.652 27.645 33.652 27.645 33.7 27.621 33.7 27.621 33.747 27.598 33.747 27.598 33.819 27.574 33.819 27.574 33.866 27.55 33.866 27.55 33.938 27.526 33.938 27.526 33.985 27.502 33.985 27.502 34.057 27.479 34.057 27.479 34.104 27.455 34.104 27.455 34.152 27.431 34.152 27.431 34.223 27.407 34.223 27.407 34.271 27.383 34.271 27.383 34.318 27.36 34.318 27.36 34.366 27.336 34.366 27.336 34.437 27.312 34.437 27.312 34.485 27.288 34.485 27.288 34.532 27.264 34.532 27.264 34.58 27.241 34.58 27.241 34.627 27.217 34.627 27.217 34.675 27.193 34.675 27.193 34.722 27.169 34.722 27.169 34.77 27.145 34.77 27.145 34.817 27.122 34.817 27.122 34.865 27.098 34.865 27.098 34.913 27.074 34.913 27.074 34.936 27.05 34.936 27.05 34.984 27.026 34.984 27.026 35.031 27.003 35.031 27.003 35.079 26.979 35.079 26.979 35.103 26.955 35.103 26.955 35.15 26.931 35.15 26.931 35.174 26.908 35.174 26.908 35.222 26.884 35.222 26.884 35.246 26.86 35.246 26.86 35.269 26.836 35.269 26.836 35.293 26.812 35.293 26.812 35.341 26.789 35.341 26.789 35.364 26.765 35.364 26.765 35.388 26.741 35.388 26.741 35.412 26.717 35.412 26.717 35.436 26.693 35.436 26.693 35.46 26.67 35.46 26.67 35.483 26.646 35.483 26.646 35.507 26.622 35.507 26.622 35.531 26.598 35.531 26.598 35.555 26.574 35.555 26.574 35.578 26.551 35.578 26.551 35.602 26.503 35.602 26.503 35.626 26.479 35.626 26.479 35.65 26.455 35.65 26.455 35.674 26.408 35.674 26.408 35.697 26.36 35.697 26.36 35.721 26.336 35.721 26.336 35.745 26.289 35.745 26.289 35.769 26.241 35.769 26.241 35.792 26.17 35.792 26.17 35.816 26.075 35.816 26.075 35.84 25.694 35.84 25.694 35.816 25.599 35.816 25.599 35.792 25.527 35.792 25.527 35.769 25.48 35.769 25.48 35.745 25.432 35.745 25.432 35.721 25.385 35.721 25.385 35.697 25.337 35.697 25.337 35.674 25.313 35.674 25.313 35.65 25.266 35.65 25.266 35.626 25.242 35.626 25.242 35.602 25.194 35.602 25.194 35.578 25.171 35.578 25.171 35.555 25.147 35.555 25.147 35.531 25.099 35.531 25.099 35.507 25.075 35.507 25.075 35.483 25.052 35.483 25.052 35.46 25.028 35.46 25.028 35.436 25.004 35.436 25.004 35.412 24.98 35.412 24.98 35.388 24.956 35.388 24.956 35.364 24.933 35.364 24.933 35.341 24.909 35.341 24.909 35.317 24.885 35.317 24.885 35.293 24.861 35.293 24.861 35.269 24.837 35.269 24.837 35.246 24.814 35.246 24.814 35.222 24.79 35.222 24.79 35.198 24.766 35.198 24.766 35.174 24.742 35.174 24.742 35.15 24.718 35.15 24.718 35.127 24.695 35.127 24.695 35.079 24.671 35.079 24.671 35.055 24.647 35.055 24.647 35.031 24.623 35.031 24.623 35.008 24.599 35.008 24.599 34.96 24.576 34.96 24.576 34.936 24.552 34.936 24.552 34.913 24.528 34.913 24.528 34.865 24.504 34.865 24.504 34.841 24.481 34.841 24.481 34.817 24.457 34.817 24.457 34.77 24.433 34.77 24.433 34.746 24.409 34.746 24.409 34.699 24.385 34.699 24.385 34.675 24.362 34.675 24.362 34.627 24.338 34.627 24.338 34.603 24.314 34.603 24.314 34.556 24.29 34.556 24.29 34.532 24.266 34.532 24.266 34.485 24.243 34.485 24.243 34.437 24.219 34.437 24.219 34.413 24.195 34.413 24.195 34.366 24.171 34.366 24.171 34.318 24.147 34.318 24.147 34.294 24.124 34.294 24.124 34.247 24.1 34.247 24.1 34.199 24.076 34.199 24.076 34.152 24.052 34.152 24.052 34.128 24.028 34.128 24.028 34.08 24.005 34.08 24.005 34.033 23.981 34.033 23.981 33.985 23.957 33.985 23.957 33.938 23.933 33.938 23.933 33.89 23.909 33.89 23.909 33.842 23.886 33.842 23.886 33.795 23.862 33.795 23.862 33.747 23.838 33.747 23.838 33.7 23.814 33.7 23.814 33.652 23.79 33.652 23.79 33.605 23.767 33.605 23.767 33.557 23.743 33.557 23.743 33.51 23.719 33.51 23.719 33.438 23.695 33.438 23.695 33.391 23.672 33.391 23.672 33.343 23.648 33.343 23.648 33.296 23.624 33.296 23.624 33.248 23.6 33.248 23.6 33.177 23.576 33.177 23.576 33.129 23.553 33.129 23.553 33.058 23.529 33.058 23.529 33.01 23.505 33.01 23.505 32.963 23.481 32.963 23.481 32.915 23.457 32.915 23.457 32.868 23.434 32.868 23.434 32.82 23.41 32.82 23.41 32.772 23.386 32.772 23.386 32.725 23.362 32.725 23.362 32.677 23.338 32.677 23.338 32.63 23.315 32.63 23.315 32.582 23.291 32.582 23.291 32.535 23.267 32.535 23.267 32.487 23.243 32.487 23.243 32.439 23.219 32.439 23.219 32.392 23.196 32.392 23.196 32.344 23.172 32.344 23.172 32.297 23.148 32.297 23.148 32.249 23.124 32.249 23.124 32.202 23.1 32.202 23.1 32.13 23.077 32.13 23.077 32.083 23.053 32.083 23.053 32.035 23.029 32.035 23.029 31.988 23.005 31.988 23.005 31.94 22.981 31.94 22.981 31.893 22.958 31.893 22.958 31.845 22.934 31.845 22.934 31.797 22.91 31.797 22.91 31.75 22.886 31.75 22.886 31.702 22.863 31.702 22.863 31.655 22.839 31.655 22.839 31.583 22.815 31.583 22.815 31.536 22.791 31.536 22.791 31.488 22.767 31.488 22.767 31.441 22.744 31.441 22.744 31.393 22.72 31.393 22.72 31.346 22.696 31.346 22.696 31.298 22.672 31.298 22.672 31.25 22.648 31.25 22.648 31.203 22.625 31.203 22.625 31.132 22.601 31.132 22.601 31.084 22.577 31.084 22.577 31.036 22.553 31.036 22.553 30.989 22.529 30.989 22.529 30.941 22.506 30.941 22.506 30.894 22.482 30.894 22.482 30.822 22.458 30.822 22.458 30.775 22.434 30.775 22.434 30.727 22.41 30.727 22.41 30.68 22.387 30.68 22.387 30.632 22.363 30.632 22.363 30.585 22.339 30.585 22.339 30.537 22.315 30.537 22.315 30.466 22.291 30.466 22.291 30.418 22.268 30.418 22.268 30.371 22.244 30.371 22.244 30.323 22.22 30.323 22.22 30.276 22.196 30.276 22.196 30.228 22.172 30.228 22.172 30.157 22.149 30.157 22.149 30.109 22.125 30.109 22.125 30.061 22.101 30.061 22.101 30.014 22.077 30.014 22.077 29.966 22.054 29.966 22.054 29.919 22.03 29.919 22.03 29.847 22.006 29.847 22.006 29.8 21.982 29.8 21.982 29.752 21.958 29.752 21.958 29.705 21.935 29.705 21.935 29.657 21.911 29.657 21.911 29.61 21.887 29.61 21.887 29.562 21.863 29.562 21.863 29.515 21.839 29.515 21.839 29.467 21.816 29.467 21.816 29.419 21.792 29.419 21.792 29.372 21.768 29.372 21.768 29.324 21.744 29.324 21.744 29.277 21.72 29.277 21.72 29.229 21.697 29.229 21.697 29.182 21.673 29.182 21.673 29.134 21.649 29.134 21.649 29.087 21.625 29.087 21.625 29.063 21.601 29.063 21.601 29.015 21.578 29.015 21.578 28.968 21.554 28.968 21.554 28.92 21.53 28.92 21.53 28.896 21.506 28.896 21.506 28.849 21.482 28.849 21.482 28.801 21.459 28.801 21.459 28.777 21.435 28.777 21.435 28.73 21.411 28.73 21.411 28.706 21.387 28.706 21.387 28.658 21.363 28.658 21.363 28.635 21.34 28.635 21.34 28.587 21.316 28.587 21.316 28.563 21.292 28.563 21.292 28.54 21.268 28.54 21.268 28.492 21.244 28.492 21.244 28.468 21.221 28.468 21.221 28.444 21.197 28.444 21.197 28.421 21.173 28.421 21.173 28.397 21.149 28.397 21.149 28.349 21.126 28.349 21.126 28.326 21.102 28.326 21.102 28.302 21.078 28.302 21.078 28.278 21.054 28.278 21.054 28.254 21.03 28.254 21.03 28.23 21.007 28.23 21.007 28.207 20.983 28.207 20.983 28.183 20.959 28.183 20.959 28.159 20.935 28.159 20.935 28.135 20.911 28.135 20.911 28.112 20.888 28.112 20.888 28.088 20.84 28.088 20.84 28.064 20.816 28.064 20.816 28.04 20.792 28.04 20.792 28.016 20.769 28.016 20.769 27.993 20.745 27.993 20.745 27.969 20.697 27.969 20.697 27.945 20.673 27.945 20.673 27.921 20.65 27.921 20.65 27.898 20.602 27.898 20.602 27.874 20.578 27.874 20.578 27.85 20.531 27.85 20.531 27.826 20.507 27.826 20.507 27.802 20.459 27.802 20.459 27.779 20.435 27.779 20.435 27.755 20.388 27.755 20.388 27.731 20.364 27.731 20.364 27.707 20.317 27.707 20.317 27.683 20.269 27.683 20.269 27.66 20.245 27.66 20.245 27.636 20.198 27.636 20.198 27.612 20.15 27.612 20.15 27.588 20.126 27.588 20.126 27.565 20.079 27.565 20.079 27.541 20.031 27.541 20.031 27.517 19.983 27.517 19.983 27.493 19.936 27.493 19.936 27.469 19.888 27.469 19.888 27.446 19.841 27.446 19.841 27.422 19.793 27.422 19.793 27.398 19.769 27.398 19.769 27.374 19.722 27.374 19.722 27.351 19.674 27.351 19.674 27.327 19.626 27.327 19.626 27.303 19.579 27.303 19.579 27.279 19.531 27.279 19.531 27.255 19.46 27.255 19.46 27.232 19.412 27.232 19.412 27.208 19.365 27.208 19.365 27.184 19.317 27.184 19.317 27.16 19.27 27.16 19.27 27.137 19.222 27.137 19.222 27.113 19.174 27.113 19.174 27.089 19.127 27.089 19.127 27.065 19.079 27.065 19.079 27.041 19.032 27.041 19.032 27.018 18.984 27.018 18.984 26.994 18.913 26.994 18.913 26.97 18.865 26.97 18.865 26.946 18.817 26.946 18.817 26.923 18.77 26.923 18.77 26.899 18.722 26.899 18.722 26.875 18.675 26.875 18.675 26.851 18.627 26.851 18.627 26.827 18.556 26.827 18.556 26.804 18.508 26.804 18.508 26.78 18.461 26.78 18.461 26.756 18.413 26.756 18.413 26.732 18.365 26.732 18.365 26.709 18.318 26.709 18.318 26.685 18.27 26.685 18.27 26.661 18.199 26.661 18.199 26.637 18.151 26.637 18.151 26.613 18.104 26.613 18.104 26.59 18.056 26.59 18.056 26.566 18.008 26.566 18.008 26.542 17.961 26.542 17.961 26.518 17.89 26.518 17.89 26.494 17.842 26.494 17.842 26.471 17.794 26.471 17.794 26.447 17.747 26.447 17.747 26.423 17.699 26.423 17.699 26.399 17.652 26.399 17.652 26.376 17.58 26.376 17.58 26.352 17.533 26.352 17.533 26.328 17.485 26.328 17.485 26.304 17.437 26.304 17.437 26.28 17.39 26.28 17.39 26.257 17.342 26.257 17.342 26.233 17.271 26.233 17.271 26.209 17.223 26.209 17.223 26.185 17.176 26.185 17.176 26.162 17.128 26.162 17.128 26.138 17.081 26.138 17.081 26.114 17.033 26.114 17.033 26.09 16.985 26.09 16.985 26.066 16.914 26.066 16.914 26.043 16.866 26.043 16.866 26.019 16.819 26.019 16.819 25.995 16.771 25.995 16.771 25.971 16.724 25.971 16.724 25.948 16.676 25.948 16.676 25.924 16.628 25.924 16.628 25.9 16.581 25.9 16.581 25.876 16.509 25.876 16.509 25.852 16.462 25.852 16.462 25.829 16.414 25.829 16.414 25.805 16.367 25.805 16.367 25.781 16.319 25.781 16.319 25.757 16.272 25.757 16.272 25.734 16.224 25.734 16.224 25.71 16.176 25.71 16.176 25.686 16.129 25.686 16.129 25.662 16.057 25.662 16.057 25.638 16.01 25.638 16.01 25.615 15.962 25.615 15.962 25.591 15.915 25.591 15.915 25.567 15.867 25.567 15.867 25.543 15.819 25.543 15.819 25.52 15.772 25.52 15.772 25.496 15.7 25.496 15.7 25.472 15.653 25.472 15.653 25.448 15.581 25.448 15.581 25.424 15.534 25.424 15.534 25.401 15.486 25.401 15.486 25.377 15.415 25.377 15.415 25.353 15.367 25.353 15.367 25.329 15.32 25.329 15.32 25.306 15.272 25.306 15.272 25.282 15.225 25.282 15.225 25.258 15.177 25.258 15.177 25.234 15.129 25.234 15.129 25.21 15.082 25.21 15.082 25.187 15.034 25.187 15.034 25.163 14.987 25.163 14.987 25.139 14.939 25.139 14.939 25.115 14.891 25.115 14.891 25.091 14.844 25.091 14.844 25.068 14.82 25.068 14.82 25.044 14.772 25.044 14.772 25.02 14.725 25.02 14.725 24.996 14.701 24.996 14.701 24.973 14.654 24.973 14.654 24.949 14.63 24.949 14.63 24.925 14.582 24.925 14.582 24.901 14.558 24.901 14.558 24.877 14.511 24.877 14.511 24.854 14.487 24.854 14.487 24.83 14.439 24.83 14.439 24.806 14.416 24.806 14.416 24.782 14.368 24.782 14.368 24.759 14.344 24.759 14.344 24.735 14.32 24.735 14.32 24.711 14.297 24.711 14.297 24.687 14.249 24.687 14.249 24.663 14.225 24.663 14.225 24.64 14.201 24.64 14.201 24.616 14.178 24.616 14.178 24.592 14.154 24.592 14.154 24.568 14.13 24.568 14.13 24.545 14.082 24.545 14.082 24.521 14.059 24.521 14.059 24.497 14.035 24.497 14.035 24.473 14.011 24.473 14.011 24.449 13.987 24.449 13.987 24.426 13.963 24.426 13.963 24.402 13.94 24.402 13.94 24.378 13.916 24.378 13.916 24.331 13.892 24.331 13.892 24.307 13.868 24.307 13.868 24.283 13.845 24.283 13.845 24.259 13.821 24.259 13.821 24.235 13.797 24.235 13.797 24.188 13.773 24.188 13.773 24.164 13.749 24.164 13.749 24.14 13.726 24.14 13.726 24.093 13.702 24.093 13.702 24.069 13.678 24.069 13.678 24.021 13.654 24.021 13.654 23.998 13.63 23.998 13.63 23.95 13.607 23.95 13.607 23.902 13.583 23.902 13.583 23.855 13.559 23.855 13.559 23.807 13.535 23.807 13.535 23.736 13.511 23.736 13.511 23.665 13.488 23.665 13.488 23.57 13.464 23.57 13.464 23.451 13.44 23.451 13.44 23.213 13.464 23.213 13.464 23.094 13.488 23.094 13.488 22.999 13.511 22.999 13.511 22.928 13.535 22.928 13.535 22.88 13.559 22.88 13.559 22.832 13.583 22.832 13.583 22.785 13.607 22.785 13.607 22.737 13.63 22.737 13.63 22.713 13.654 22.713 13.654 22.666 13.678 22.666 13.678 22.642 13.702 22.642 13.702 22.595 13.726 22.595 13.726 22.571 13.749 22.571 13.749 22.547 13.773 22.547 13.773 22.523 13.797 22.523 13.797 22.499 13.821 22.499 13.821 22.476 13.845 22.476 13.845 22.452 13.868 22.452 13.868 22.428 13.892 22.428 13.892 22.404 13.916 22.404 13.916 22.381 13.94 22.381 13.94 22.357 13.963 22.357 13.963 22.333 13.987 22.333 13.987 22.309 14.011 22.309 14.011 22.285 14.035 22.285 14.035 22.262 14.082 22.262 14.082 22.238 14.106 22.238 14.106 22.214 14.13 22.214 14.13 22.19 14.178 22.19 14.178 22.167 14.201 22.167 14.201 22.143 14.249 22.143 14.249 22.119 14.273 22.119 14.273 22.095 14.32 22.095 14.32 22.071 14.344 22.071 14.344 22.048 14.392 22.048 14.392 22.024 14.439 22.024 14.439 22 14.487 22 14.487 21.976 14.511 21.976 14.511 21.953 14.558 21.953 14.558 21.929 14.63 21.929 14.63 21.905 14.677 21.905 14.677 21.881 14.725 21.881 14.725 21.857 14.772 21.857 14.772 21.834 14.844 21.834 14.844 21.81 14.891 21.81 14.891 21.786 14.963 21.786 14.963 21.762 15.01 21.762 15.01 21.739 15.082 21.739 15.082 21.715 15.129 21.715 15.129 21.691 15.201 21.691 15.201 21.667 15.248 21.667 15.248 21.643 15.32 21.643 15.32 21.62 15.391 21.62 15.391 21.596 15.439 21.596 15.439 21.572 15.51 21.572 15.51 21.548 15.558 21.548 15.558 21.524 15.629 21.524 15.629 21.501 15.7 21.501 15.7 21.477 15.748 21.477 15.748 21.453 15.819 21.453 15.819 21.429 15.891 21.429 15.891 21.406 15.962 21.406 15.962 21.382 16.01 21.382 16.01 21.358 16.081 21.358 16.081 21.334 16.153 21.334 16.153 21.31 16.224 21.31 16.224 21.287 16.272 21.287 16.272 21.263 16.343 21.263 16.343 21.239 16.414 21.239 16.414 21.215 16.486 21.215 16.486 21.192 16.533 21.192 16.533 21.168 16.605 21.168 16.605 21.144 16.676 21.144 16.676 21.12 16.747 21.12 16.747 21.096 16.795 21.096 16.795 21.073 16.866 21.073 16.866 21.049 16.938 21.049 16.938 21.025 17.009 21.025 17.009 21.001 17.081 21.001 17.081 20.978 17.128 20.978 17.128 20.954 17.199 20.954 17.199 20.93 17.271 20.93 17.271 20.906 17.342 20.906 17.342 20.882 17.414 20.882 17.414 20.859 17.485 20.859 17.485 20.835 17.533 20.835 17.533 20.811 17.604 20.811 17.604 20.787 17.675 20.787 17.675 20.764 17.747 20.764 17.747 20.74 17.818 20.74 17.818 20.716 17.89 20.716 17.89 20.692 17.937 20.692 17.937 20.668 18.008 20.668 18.008 20.645 18.08 20.645 18.08 20.621 18.151 20.621 18.151 20.597 18.223 20.597 18.223 20.573 18.294 20.573 18.294 20.55 18.365 20.55 18.365 20.526 18.437 20.526 18.437 20.502 18.484 20.502 18.484 20.478 18.556 20.478 18.556 20.454 18.627 20.454 18.627 20.431 18.699 20.431 18.699 20.407 18.77 20.407 18.77 20.383 18.841 20.383 18.841 20.359 18.913 20.359 18.913 20.336 18.984 20.336 18.984 20.312 19.055 20.312 19.055 20.288 19.103 20.288 19.103 20.264 19.174 20.264 19.174 20.24 19.246 20.24 19.246 20.217 19.317 20.217 19.317 20.193 19.389 20.193 19.389 20.169 19.46 20.169 19.46 20.145 19.531 20.145 19.531 20.121 19.603 20.121 19.603 20.098 19.674 20.098 19.674 20.074 19.722 20.074 19.722 20.05 19.793 20.05 19.793 20.026 19.864 20.026 19.864 20.003 19.936 20.003 19.936 19.979"/>
      </g>
      <g transform="translate(85 85)">
        <path fill="#FFFFFF" d="M22.4645514,0.0707423581 C16.3635558,0.0707423581 15.5985558,0.0963864629 13.2025274,0.205644105 C10.8113239,0.314606987 9.17832604,0.693471616 7.74955142,1.24752183 C6.27223195,1.82033843 5.01942013,2.58681223 3.77054705,3.83295852 C2.52167396,5.0791048 1.75352298,6.32927948 1.17955142,7.80327511 C0.623993435,9.22912664 0.244299781,10.858559 0.135295405,13.2444432 C0.0258971554,15.6352402 9.84682712e-05,16.3984716 9.84682712e-05,22.4861463 C9.84682712e-05,28.5740175 0.0258971554,29.3372489 0.135295405,31.7280459 C0.244299781,34.1139301 0.623993435,35.7433624 1.17955142,37.169214 C1.75352298,38.6432096 2.52167396,39.8933843 3.77054705,41.1395306 C5.01942013,42.3856769 6.27223195,43.1521507 7.74955142,43.7249672 C9.17832604,44.2790175 10.8113239,44.6578821 13.2025274,44.766845 C15.5985558,44.8759061 16.3635558,44.9017467 22.4645514,44.9017467 C28.565547,44.9017467 29.3306455,44.8759061 31.726674,44.766845 C34.117779,44.6578821 35.7507768,44.2790175 37.1796499,43.7249672 C38.6569694,43.1521507 39.9096827,42.3856769 41.1585558,41.1395306 C42.4074289,39.8933843 43.1755799,38.6432096 43.7496499,37.169214 C44.3051094,35.7433624 44.6848031,34.1139301 44.7939059,31.7280459 C44.9033042,29.3372489 44.9290044,28.5740175 44.9290044,22.4861463 C44.9290044,16.3984716 44.9033042,15.6352402 44.7939059,13.2444432 C44.6848031,10.858559 44.3051094,9.22912664 43.7496499,7.80327511 C43.1755799,6.32927948 42.4074289,5.0791048 41.1585558,3.83295852 C39.9096827,2.58681223 38.6569694,1.82033843 37.1796499,1.24752183 C35.7507768,0.693471616 34.117779,0.314606987 31.726674,0.205644105 C29.3306455,0.0963864629 28.565547,0.0707423581 22.4645514,0.0707423581"/>
        <path fill="#FF837D" d="M22.4645514 29.9580131C18.3289825 29.9580131 14.9763348 26.6127838 14.9763348 22.4861463 14.9763348 18.359607 18.3289825 15.0143777 22.4645514 15.0143777 26.6002188 15.0143777 29.9527681 18.359607 29.9527681 22.4861463 29.9527681 26.6127838 26.6002188 29.9580131 22.4645514 29.9580131M22.4645514 10.9755786C16.0935558 10.9755786 10.9287965 16.1291594 10.9287965 22.4861463 10.9287965 28.8434279 16.0935558 33.9968122 22.4645514 33.9968122 28.835547 33.9968122 34.0003063 28.8434279 34.0003063 22.4861463 34.0003063 16.1291594 28.835547 10.9755786 22.4645514 10.9755786M37.1519803 10.5207642C37.1519803 12.0062555 35.9450547 13.2106441 34.4562144 13.2106441 32.9674726 13.2106441 31.7604486 12.0062555 31.7604486 10.5207642 31.7604486 9.03517467 32.9674726 7.83088428 34.4562144 7.83088428 35.9450547 7.83088428 37.1519803 9.03517467 37.1519803 10.5207642"/>
      </g>
      <g transform="translate(167 83)">
        <path fill="#56595B" d="M24.5,49 C38.0309764,49 49,38.0309764 49,24.5 C49,10.9690236 38.0309764,0 24.5,0 C10.9690236,0 0,10.9690236 0,24.5 C0,38.0309764 10.9690236,49 24.5,49 Z"/>
        <rect width="1.786" height="18.752" x="23.386" y="7.239" fill="#B1B5BD" rx=".893"/>
        <rect width="1.786" height="13.428" x="28.427" y="21.59" fill="#B1B5BD" rx=".893"/>
      </g>
      <g transform="translate(252)">
        <path fill="#98DC9A" d="M0.00417749014,23.0523959 C0.242764962,10.2802662 10.6708401,0 23.5,0 C36.4786916,0 47,10.5213084 47,23.5 C47,36.0287275 37.1955813,46.2675103 24.8406952,46.9623971 C24.6882828,46.9871387 24.5318713,47 24.3724383,47 L2.89916664,47 C1.29800112,47 0,45.7036001 0,44.0991175 L0,23.2095244 C0,23.156808 0.00140427553,23.10442 0.00417749014,23.0523959 L0.00417749014,23.0523959 Z"/>
        <path fill="#FFFFFF" d="M27.6427496,28.0729073 C27.6071821,28.6552053 27.6427496,28.0729073 27.6427496,28.0729073 C27.8622378,28.9539193 30.2260786,29.6681207 32.9219047,29.6681207 L29.1197109,29.6681207 C31.8158195,29.6681207 34.398866,27.8735056 34.398866,27.8735056 C34.398866,27.8735056 34.4084423,29.3979767 34.398866,27.8735056 C34.4084423,23.444317 28.8014918,19.8974388 21.8801798,19.8974388 C14.968444,19.8974388 9.36149359,23.444317 9.36149359,27.8735056 C9.36149359,29.2953176 9.36149359,27.8735056 9.36149359,27.8735056 C9.58098182,28.8646441 11.9448226,29.6681207 14.6406487,29.6681207 L10.8384549,29.6681207 C13.5345635,29.6681207 16.1176099,28.0729073 16.1176099,28.0729073 C16.1176099,28.0729073 16.1627538,28.6552053 16.1176099,28.0729073 C16.1627538,26.8914542 15.5607168,25.8411723 14.7266448,25.2812839 C14.6668862,25.2128192 17.1587517,23.3569035 21.8801798,23.2872672 C26.6111842,23.3569035 29.1030497,25.2128192 29.0337147,25.2812839 C28.2092191,25.8411723 27.6071821,26.8914542 27.6427496,28.0729073 Z" transform="rotate(-135 21.882 24.783)"/>
      </g>
      <g transform="translate(250 83)">
        <circle cx="24.5" cy="24.5" r="24.5" fill="#FF837D"/>
        <polygon fill="#FFFFFF" points="17.744 17.932 17.744 17.882 17.793 17.882 17.793 17.832 17.842 17.832 17.842 17.732 17.892 17.732 17.892 17.682 17.941 17.682 17.941 17.582 17.99 17.582 17.99 17.532 18.04 17.532 18.04 17.483 18.089 17.483 18.089 17.433 18.138 17.433 18.138 17.333 18.188 17.333 18.188 17.283 18.237 17.283 18.237 17.233 18.286 17.233 18.286 17.183 18.336 17.183 18.336 17.133 18.385 17.133 18.385 17.083 18.434 17.083 18.434 17.034 18.484 17.034 18.484 16.934 18.533 16.934 18.533 16.884 18.582 16.884 18.582 16.834 18.631 16.834 18.631 16.784 18.681 16.784 18.681 16.734 18.73 16.734 18.73 16.684 18.779 16.684 18.779 16.634 18.829 16.634 18.829 16.585 18.878 16.585 18.878 16.535 18.977 16.535 18.977 16.485 19.026 16.485 19.026 16.435 19.075 16.435 19.075 16.385 19.125 16.385 19.125 16.335 19.174 16.335 19.174 16.285 19.223 16.285 19.223 16.235 19.273 16.235 19.273 16.185 19.371 16.185 19.371 16.136 19.421 16.136 19.421 16.086 19.47 16.086 19.47 16.036 19.569 16.036 19.569 15.986 19.618 15.986 19.618 15.936 19.667 15.936 19.667 15.886 19.766 15.886 19.766 15.836 19.815 15.836 19.815 15.786 19.914 15.786 19.914 15.736 19.963 15.736 19.963 15.687 20.062 15.687 20.062 15.637 20.111 15.637 20.111 15.587 20.21 15.587 20.21 15.537 20.259 15.537 20.259 15.487 20.358 15.487 20.358 15.437 20.456 15.437 20.456 15.387 20.555 15.387 20.555 15.337 20.604 15.337 20.604 15.287 20.703 15.287 20.703 15.238 20.802 15.238 20.802 15.188 20.9 15.188 20.9 15.138 20.999 15.138 20.999 15.088 21.098 15.088 21.098 15.038 21.246 15.038 21.246 14.988 21.344 14.988 21.344 14.938 21.443 14.938 21.443 14.888 21.591 14.888 21.591 14.838 21.689 14.838 21.689 14.789 21.837 14.789 21.837 14.739 21.985 14.739 21.985 14.689 22.133 14.689 22.133 14.639 22.281 14.639 22.281 14.589 22.429 14.589 22.429 14.539 22.627 14.539 22.627 14.489 22.824 14.489 22.824 14.439 23.021 14.439 23.021 14.389 23.268 14.389 23.268 14.34 23.514 14.34 23.514 14.29 23.81 14.29 23.81 14.24 24.254 14.24 24.254 14.19 24.895 14.19 24.895 14.14 25.931 14.14 25.931 14.19 26.523 14.19 26.523 14.24 26.918 14.24 26.918 14.29 27.213 14.29 27.213 14.34 27.411 14.34 27.411 14.389 27.657 14.389 27.657 14.439 27.855 14.439 27.855 14.489 28.003 14.489 28.003 14.539 28.151 14.539 28.151 14.589 28.348 14.589 28.348 14.639 28.446 14.639 28.446 14.689 28.594 14.689 28.594 14.739 28.742 14.739 28.742 14.789 28.841 14.789 28.841 14.838 28.989 14.838 28.989 14.888 29.088 14.888 29.088 14.938 29.186 14.938 29.186 14.988 29.285 14.988 29.285 15.038 29.384 15.038 29.384 15.088 29.482 15.088 29.482 15.138 29.581 15.138 29.581 15.188 29.68 15.188 29.68 15.238 29.778 15.238 29.778 15.287 29.828 15.287 29.828 15.337 29.926 15.337 29.926 15.387 30.025 15.387 30.025 15.437 30.074 15.437 30.074 15.487 30.173 15.487 30.173 15.537 30.222 15.537 30.222 15.587 30.321 15.587 30.321 15.637 30.37 15.637 30.37 15.687 30.469 15.687 30.469 15.736 30.518 15.736 30.518 15.786 30.567 15.786 30.567 15.836 30.666 15.836 30.666 15.886 30.715 15.886 30.715 15.936 30.765 15.936 30.765 15.986 30.863 15.986 30.863 16.036 30.913 16.036 30.913 16.086 30.962 16.086 30.962 16.136 31.011 16.136 31.011 16.185 31.061 16.185 31.061 16.235 31.11 16.235 31.11 16.285 31.159 16.285 31.159 16.335 31.258 16.335 31.258 16.385 31.307 16.385 31.307 16.435 31.356 16.435 31.356 16.485 31.406 16.485 31.406 16.535 31.455 16.535 31.455 16.585 31.504 16.585 31.504 16.634 31.554 16.634 31.554 16.734 31.603 16.734 31.603 16.784 31.652 16.784 31.652 16.834 31.702 16.834 31.702 16.884 31.751 16.884 31.751 16.934 31.8 16.934 31.8 16.984 31.85 16.984 31.85 17.034 31.899 17.034 31.899 17.133 31.948 17.133 31.948 17.183 31.998 17.183 31.998 17.233 32.047 17.233 32.047 17.283 32.096 17.283 32.096 17.383 32.146 17.383 32.146 17.433 32.195 17.433 32.195 17.532 32.244 17.532 32.244 17.582 32.294 17.582 32.294 17.682 32.343 17.682 32.343 17.732 32.392 17.732 32.392 17.832 32.442 17.832 32.442 17.882 32.491 17.882 32.491 17.981 32.54 17.981 32.54 18.081 32.59 18.081 32.59 18.131 32.639 18.131 32.639 18.231 32.688 18.231 32.688 18.331 32.737 18.331 32.737 18.43 32.787 18.43 32.787 18.53 32.836 18.53 32.836 18.63 32.885 18.63 32.885 18.73 32.935 18.73 32.935 18.879 32.984 18.879 32.984 18.979 33.033 18.979 33.033 19.129 33.083 19.129 33.083 19.279 33.132 19.279 33.132 19.428 33.181 19.428 33.181 19.578 33.231 19.578 33.231 19.728 33.28 19.728 33.28 19.927 33.329 19.927 33.329 20.177 33.379 20.177 33.379 20.426 33.428 20.426 33.428 20.775 33.477 20.775 33.477 22.521 33.428 22.521 33.428 23.02 33.379 23.02 33.379 23.369 33.329 23.369 33.329 23.669 33.28 23.669 33.28 23.968 33.231 23.968 33.231 24.168 33.181 24.168 33.181 24.417 33.132 24.417 33.132 24.617 33.083 24.617 33.083 24.766 33.033 24.766 33.033 24.966 32.984 24.966 32.984 25.116 32.935 25.116 32.935 25.265 32.885 25.265 32.885 25.415 32.836 25.415 32.836 25.515 32.787 25.515 32.787 25.664 32.737 25.664 32.737 25.814 32.688 25.814 32.688 25.914 32.639 25.914 32.639 26.013 32.59 26.013 32.59 26.163 32.54 26.163 32.54 26.263 32.491 26.263 32.491 26.363 32.442 26.363 32.442 26.462 32.392 26.462 32.392 26.562 32.343 26.562 32.343 26.662 32.294 26.662 32.294 26.762 32.244 26.762 32.244 26.812 32.195 26.812 32.195 26.911 32.146 26.911 32.146 27.011 32.096 27.011 32.096 27.111 32.047 27.111 32.047 27.161 31.998 27.161 31.998 27.261 31.948 27.261 31.948 27.311 31.899 27.311 31.899 27.41 31.85 27.41 31.85 27.46 31.8 27.46 31.8 27.56 31.751 27.56 31.751 27.61 31.702 27.61 31.702 27.66 31.652 27.66 31.652 27.76 31.603 27.76 31.603 27.809 31.554 27.809 31.554 27.859 31.504 27.859 31.504 27.909 31.455 27.909 31.455 28.009 31.406 28.009 31.406 28.059 31.356 28.059 31.356 28.109 31.307 28.109 31.307 28.159 31.258 28.159 31.258 28.209 31.209 28.209 31.209 28.258 31.159 28.258 31.159 28.358 31.11 28.358 31.11 28.408 31.061 28.408 31.061 28.458 31.011 28.458 31.011 28.508 30.962 28.508 30.962 28.558 30.913 28.558 30.913 28.608 30.814 28.608 30.814 28.658 30.765 28.658 30.765 28.707 30.715 28.707 30.715 28.757 30.666 28.757 30.666 28.807 30.617 28.807 30.617 28.857 30.567 28.857 30.567 28.907 30.518 28.907 30.518 28.957 30.419 28.957 30.419 29.007 30.37 29.007 30.37 29.057 30.321 29.057 30.321 29.107 30.222 29.107 30.222 29.156 30.173 29.156 30.173 29.206 30.123 29.206 30.123 29.256 30.025 29.256 30.025 29.306 29.975 29.306 29.975 29.356 29.877 29.356 29.877 29.406 29.778 29.406 29.778 29.456 29.729 29.456 29.729 29.506 29.63 29.506 29.63 29.556 29.532 29.556 29.532 29.605 29.433 29.605 29.433 29.655 29.334 29.655 29.334 29.705 29.236 29.705 29.236 29.755 29.137 29.755 29.137 29.805 29.038 29.805 29.038 29.855 28.89 29.855 28.89 29.905 28.792 29.905 28.792 29.955 28.644 29.955 28.644 30.005 28.496 30.005 28.496 30.054 28.299 30.054 28.299 30.104 28.151 30.104 28.151 30.154 27.904 30.154 27.904 30.204 27.657 30.204 27.657 30.254 27.263 30.254 27.263 30.304 26.178 30.304 26.178 30.254 25.882 30.254 25.882 30.204 25.635 30.204 25.635 30.154 25.487 30.154 25.487 30.104 25.339 30.104 25.339 30.054 25.191 30.054 25.191 30.005 25.093 30.005 25.093 29.955 24.945 29.955 24.945 29.905 24.846 29.905 24.846 29.855 24.747 29.855 24.747 29.805 24.649 29.805 24.649 29.755 24.599 29.755 24.599 29.705 24.501 29.705 24.501 29.655 24.451 29.655 24.451 29.605 24.353 29.605 24.353 29.556 24.303 29.556 24.303 29.506 24.205 29.506 24.205 29.456 24.156 29.456 24.156 29.406 24.106 29.406 24.106 29.356 24.057 29.356 24.057 29.306 24.008 29.306 24.008 29.256 23.958 29.256 23.958 29.206 23.909 29.206 23.909 29.156 23.86 29.156 23.86 29.107 23.81 29.107 23.81 29.057 23.761 29.057 23.761 29.007 23.712 29.007 23.712 28.907 23.662 28.907 23.662 28.857 23.613 28.857 23.613 28.757 23.564 28.757 23.564 28.707 23.514 28.707 23.514 28.807 23.465 28.807 23.465 29.007 23.416 29.007 23.416 29.156 23.366 29.156 23.366 29.356 23.317 29.356 23.317 29.556 23.268 29.556 23.268 29.755 23.218 29.755 23.218 29.955 23.169 29.955 23.169 30.154 23.12 30.154 23.12 30.354 23.07 30.354 23.07 30.553 23.021 30.553 23.021 30.753 22.972 30.753 22.972 30.952 22.922 30.952 22.922 31.152 22.873 31.152 22.873 31.352 22.824 31.352 22.824 31.551 22.775 31.551 22.775 31.701 22.725 31.701 22.725 31.9 22.676 31.9 22.676 32.1 22.627 32.1 22.627 32.299 22.577 32.299 22.577 32.449 22.528 32.449 22.528 32.599 22.479 32.599 22.479 32.748 22.429 32.748 22.429 32.898 22.38 32.898 22.38 32.998 22.331 32.998 22.331 33.148 22.281 33.148 22.281 33.247 22.232 33.247 22.232 33.397 22.183 33.397 22.183 33.497 22.133 33.497 22.133 33.597 22.084 33.597 22.084 33.696 22.035 33.696 22.035 33.796 21.985 33.796 21.985 33.896 21.936 33.896 21.936 33.996 21.887 33.996 21.887 34.095 21.837 34.095 21.837 34.195 21.788 34.195 21.788 34.295 21.739 34.295 21.739 34.345 21.689 34.345 21.689 34.445 21.64 34.445 21.64 34.544 21.591 34.544 21.591 34.644 21.541 34.644 21.541 34.694 21.492 34.694 21.492 34.794 21.443 34.794 21.443 34.894 21.394 34.894 21.394 34.944 21.344 34.944 21.344 35.043 21.295 35.043 21.295 35.093 21.246 35.093 21.246 35.193 21.196 35.193 21.196 35.243 21.147 35.243 21.147 35.343 21.098 35.343 21.098 35.393 21.048 35.393 21.048 35.492 20.999 35.492 20.999 35.542 20.95 35.542 20.95 35.642 20.9 35.642 20.9 35.692 20.851 35.692 20.851 35.792 20.802 35.792 20.802 35.842 20.752 35.842 20.752 35.891 20.703 35.891 20.703 35.991 20.654 35.991 20.654 36.041 20.604 36.041 20.604 36.091 20.555 36.091 20.555 36.191 20.506 36.191 20.506 36.241 20.456 36.241 20.456 36.291 20.407 36.291 20.407 36.39 20.358 36.39 20.358 36.44 20.308 36.44 20.308 36.49 20.259 36.49 20.259 36.54 20.16 36.54 20.16 36.49 20.062 36.49 20.062 36.241 20.012 36.241 20.012 35.891 19.963 35.891 19.963 35.442 19.914 35.442 19.914 34.794 19.865 34.794 19.865 32.998 19.914 32.998 19.914 32.449 19.963 32.449 19.963 32.1 20.012 32.1 20.012 31.801 20.062 31.801 20.062 31.601 20.111 31.601 20.111 31.352 20.16 31.352 20.16 31.152 20.21 31.152 20.21 30.952 20.259 30.952 20.259 30.753 20.308 30.753 20.308 30.503 20.358 30.503 20.358 30.304 20.407 30.304 20.407 30.104 20.456 30.104 20.456 29.905 20.506 29.905 20.506 29.655 20.555 29.655 20.555 29.456 20.604 29.456 20.604 29.256 20.654 29.256 20.654 29.057 20.703 29.057 20.703 28.807 20.752 28.807 20.752 28.608 20.802 28.608 20.802 28.408 20.851 28.408 20.851 28.209 20.9 28.209 20.9 27.959 20.95 27.959 20.95 27.76 20.999 27.76 20.999 27.56 21.048 27.56 21.048 27.36 21.098 27.36 21.098 27.161 21.147 27.161 21.147 26.911 21.196 26.911 21.196 26.712 21.246 26.712 21.246 26.512 21.295 26.512 21.295 26.313 21.344 26.313 21.344 26.063 21.394 26.063 21.394 25.864 21.443 25.864 21.443 25.664 21.492 25.664 21.492 25.465 21.541 25.465 21.541 25.215 21.591 25.215 21.591 25.016 21.64 25.016 21.64 24.816 21.689 24.816 21.689 24.617 21.739 24.617 21.739 24.417 21.689 24.417 21.689 24.317 21.64 24.317 21.64 24.168 21.591 24.168 21.591 24.018 21.541 24.018 21.541 23.868 21.492 23.868 21.492 23.669 21.443 23.669 21.443 23.419 21.394 23.419 21.394 23.12 21.344 23.12 21.344 21.823 21.394 21.823 21.394 21.573 21.443 21.573 21.443 21.324 21.492 21.324 21.492 21.174 21.541 21.174 21.541 21.025 21.591 21.025 21.591 20.875 21.64 20.875 21.64 20.775 21.689 20.775 21.689 20.675 21.739 20.675 21.739 20.576 21.788 20.576 21.788 20.476 21.837 20.476 21.837 20.376 21.887 20.376 21.887 20.276 21.936 20.276 21.936 20.226 21.985 20.226 21.985 20.127 22.035 20.127 22.035 20.077 22.084 20.077 22.084 20.027 22.133 20.027 22.133 19.977 22.183 19.977 22.183 19.877 22.232 19.877 22.232 19.827 22.281 19.827 22.281 19.777 22.331 19.777 22.331 19.728 22.38 19.728 22.38 19.678 22.479 19.678 22.479 19.628 22.528 19.628 22.528 19.578 22.577 19.578 22.577 19.528 22.676 19.528 22.676 19.478 22.725 19.478 22.725 19.428 22.824 19.428 22.824 19.378 22.922 19.378 22.922 19.328 23.021 19.328 23.021 19.279 23.169 19.279 23.169 19.229 23.317 19.229 23.317 19.179 23.662 19.179 23.662 19.129 23.86 19.129 23.86 19.179 24.205 19.179 24.205 19.229 24.353 19.229 24.353 19.279 24.501 19.279 24.501 19.328 24.599 19.328 24.599 19.378 24.698 19.378 24.698 19.428 24.747 19.428 24.747 19.478 24.797 19.478 24.797 19.528 24.895 19.528 24.895 19.578 24.945 19.578 24.945 19.628 24.994 19.628 24.994 19.728 25.043 19.728 25.043 19.777 25.093 19.777 25.093 19.827 25.142 19.827 25.142 19.927 25.191 19.927 25.191 20.027 25.241 20.027 25.241 20.127 25.29 20.127 25.29 20.226 25.339 20.226 25.339 20.376 25.389 20.376 25.389 20.626 25.438 20.626 25.438 21.573 25.389 21.573 25.389 21.873 25.339 21.873 25.339 22.122 25.29 22.122 25.29 22.322 25.241 22.322 25.241 22.521 25.191 22.521 25.191 22.671 25.142 22.671 25.142 22.871 25.093 22.871 25.093 23.02 25.043 23.02 25.043 23.22 24.994 23.22 24.994 23.369 24.945 23.369 24.945 23.519 24.895 23.519 24.895 23.719 24.846 23.719 24.846 23.868 24.797 23.868 24.797 24.018 24.747 24.018 24.747 24.168 24.698 24.168 24.698 24.367 24.649 24.367 24.649 24.517 24.599 24.517 24.599 24.667 24.55 24.667 24.55 24.866 24.501 24.866 24.501 25.016 24.451 25.016 24.451 25.215 24.402 25.215 24.402 25.415 24.353 25.415 24.353 25.614 24.303 25.614 24.303 25.914 24.254 25.914 24.254 26.363 24.303 26.363 24.303 26.662 24.353 26.662 24.353 26.812 24.402 26.812 24.402 26.911 24.451 26.911 24.451 27.061 24.501 27.061 24.501 27.111 24.55 27.111 24.55 27.211 24.599 27.211 24.599 27.261 24.649 27.261 24.649 27.36 24.698 27.36 24.698 27.41 24.747 27.41 24.747 27.46 24.797 27.46 24.797 27.51 24.846 27.51 24.846 27.56 24.895 27.56 24.895 27.61 24.945 27.61 24.945 27.66 24.994 27.66 24.994 27.71 25.093 27.71 25.093 27.76 25.142 27.76 25.142 27.809 25.241 27.809 25.241 27.859 25.29 27.859 25.29 27.909 25.389 27.909 25.389 27.959 25.537 27.959 25.537 28.009 25.684 28.009 25.684 28.059 25.832 28.059 25.832 28.109 26.227 28.109 26.227 28.159 26.474 28.159 26.474 28.109 26.918 28.109 26.918 28.059 27.115 28.059 27.115 28.009 27.263 28.009 27.263 27.959 27.411 27.959 27.411 27.909 27.509 27.909 27.509 27.859 27.608 27.859 27.608 27.809 27.707 27.809 27.707 27.76 27.805 27.76 27.805 27.71 27.904 27.71 27.904 27.66 27.953 27.66 27.953 27.61 28.052 27.61 28.052 27.56 28.101 27.56 28.101 27.51 28.151 27.51 28.151 27.46 28.249 27.46 28.249 27.41 28.299 27.41 28.299 27.36 28.348 27.36 28.348 27.311 28.397 27.311 28.397 27.261 28.446 27.261 28.446 27.211 28.496 27.211 28.496 27.161 28.545 27.161 28.545 27.111 28.594 27.111 28.594 27.061 28.644 27.061 28.644 27.011 28.693 27.011 28.693 26.961 28.742 26.961 28.742 26.911 28.792 26.911 28.792 26.812 28.841 26.812 28.841 26.762 28.89 26.762 28.89 26.712 28.94 26.712 28.94 26.662 28.989 26.662 28.989 26.562 29.038 26.562 29.038 26.512 29.088 26.512 29.088 26.413 29.137 26.413 29.137 26.363 29.186 26.363 29.186 26.263 29.236 26.263 29.236 26.163 29.285 26.163 29.285 26.113 29.334 26.113 29.334 26.013 29.384 26.013 29.384 25.914 29.433 25.914 29.433 25.814 29.482 25.814 29.482 25.714 29.532 25.714 29.532 25.614 29.581 25.614 29.581 25.515 29.63 25.515 29.63 25.415 29.68 25.415 29.68 25.265 29.729 25.265 29.729 25.165 29.778 25.165 29.778 25.016 29.828 25.016 29.828 24.866 29.877 24.866 29.877 24.766 29.926 24.766 29.926 24.567 29.975 24.567 29.975 24.417 30.025 24.417 30.025 24.267 30.074 24.267 30.074 24.068 30.123 24.068 30.123 23.868 30.173 23.868 30.173 23.619 30.222 23.619 30.222 23.369 30.271 23.369 30.271 23.07 30.321 23.07 30.321 22.671 30.37 22.671 30.37 22.122 30.419 22.122 30.419 20.626 30.37 20.626 30.37 20.276 30.321 20.276 30.321 20.027 30.271 20.027 30.271 19.827 30.222 19.827 30.222 19.628 30.173 19.628 30.173 19.478 30.123 19.478 30.123 19.328 30.074 19.328 30.074 19.229 30.025 19.229 30.025 19.079 29.975 19.079 29.975 18.979 29.926 18.979 29.926 18.879 29.877 18.879 29.877 18.78 29.828 18.78 29.828 18.68 29.778 18.68 29.778 18.63 29.729 18.63 29.729 18.53 29.68 18.53 29.68 18.43 29.63 18.43 29.63 18.381 29.581 18.381 29.581 18.281 29.532 18.281 29.532 18.231 29.482 18.231 29.482 18.181 29.433 18.181 29.433 18.081 29.384 18.081 29.384 18.031 29.334 18.031 29.334 17.981 29.285 17.981 29.285 17.932 29.236 17.932 29.236 17.882 29.186 17.882 29.186 17.832 29.137 17.832 29.137 17.782 29.088 17.782 29.088 17.732 29.038 17.732 29.038 17.682 28.989 17.682 28.989 17.632 28.94 17.632 28.94 17.582 28.89 17.582 28.89 17.532 28.841 17.532 28.841 17.483 28.792 17.483 28.792 17.433 28.693 17.433 28.693 17.383 28.644 17.383 28.644 17.333 28.594 17.333 28.594 17.283 28.496 17.283 28.496 17.233 28.446 17.233 28.446 17.183 28.348 17.183 28.348 17.133 28.299 17.133 28.299 17.083 28.2 17.083 28.2 17.034 28.101 17.034 28.101 16.984 28.003 16.984 28.003 16.934 27.904 16.934 27.904 16.884 27.805 16.884 27.805 16.834 27.707 16.834 27.707 16.784 27.608 16.784 27.608 16.734 27.46 16.734 27.46 16.684 27.361 16.684 27.361 16.634 27.213 16.634 27.213 16.585 27.016 16.585 27.016 16.535 26.868 16.535 26.868 16.485 26.671 16.485 26.671 16.435 26.375 16.435 26.375 16.385 26.079 16.385 26.079 16.335 25.487 16.335 25.487 16.285 24.698 16.285 24.698 16.335 24.156 16.335 24.156 16.385 23.86 16.385 23.86 16.435 23.564 16.435 23.564 16.485 23.366 16.485 23.366 16.535 23.169 16.535 23.169 16.585 23.021 16.585 23.021 16.634 22.873 16.634 22.873 16.684 22.725 16.684 22.725 16.734 22.577 16.734 22.577 16.784 22.479 16.784 22.479 16.834 22.38 16.834 22.38 16.884 22.232 16.884 22.232 16.934 22.133 16.934 22.133 16.984 22.035 16.984 22.035 17.034 21.936 17.034 21.936 17.083 21.837 17.083 21.837 17.133 21.788 17.133 21.788 17.183 21.689 17.183 21.689 17.233 21.591 17.233 21.591 17.283 21.541 17.283 21.541 17.333 21.443 17.333 21.443 17.383 21.394 17.383 21.394 17.433 21.295 17.433 21.295 17.483 21.246 17.483 21.246 17.532 21.196 17.532 21.196 17.582 21.098 17.582 21.098 17.632 21.048 17.632 21.048 17.682 20.999 17.682 20.999 17.732 20.95 17.732 20.95 17.782 20.851 17.782 20.851 17.832 20.802 17.832 20.802 17.882 20.752 17.882 20.752 17.932 20.703 17.932 20.703 17.981 20.654 17.981 20.654 18.031 20.604 18.031 20.604 18.081 20.555 18.081 20.555 18.131 20.506 18.131 20.506 18.181 20.456 18.181 20.456 18.231 20.407 18.231 20.407 18.281 20.358 18.281 20.358 18.331 20.308 18.331 20.308 18.381 20.259 18.381 20.259 18.48 20.21 18.48 20.21 18.53 20.16 18.53 20.16 18.58 20.111 18.58 20.111 18.63 20.062 18.63 20.062 18.73 20.012 18.73 20.012 18.78 19.963 18.78 19.963 18.83 19.914 18.83 19.914 18.929 19.865 18.929 19.865 18.979 19.815 18.979 19.815 19.079 19.766 19.079 19.766 19.129 19.717 19.129 19.717 19.229 19.667 19.229 19.667 19.328 19.618 19.328 19.618 19.378 19.569 19.378 19.569 19.478 19.519 19.478 19.519 19.578 19.47 19.578 19.47 19.678 19.421 19.678 19.421 19.777 19.371 19.777 19.371 19.877 19.322 19.877 19.322 20.027 19.273 20.027 19.273 20.127 19.223 20.127 19.223 20.276 19.174 20.276 19.174 20.376 19.125 20.376 19.125 20.576 19.075 20.576 19.075 20.725 19.026 20.725 19.026 20.925 18.977 20.925 18.977 21.124 18.927 21.124 18.927 21.374 18.878 21.374 18.878 21.723 18.829 21.723 18.829 23.22 18.878 23.22 18.878 23.469 18.927 23.469 18.927 23.719 18.977 23.719 18.977 23.868 19.026 23.868 19.026 24.018 19.075 24.018 19.075 24.118 19.125 24.118 19.125 24.267 19.174 24.267 19.174 24.367 19.223 24.367 19.223 24.467 19.273 24.467 19.273 24.567 19.322 24.567 19.322 24.617 19.371 24.617 19.371 24.716 19.421 24.716 19.421 24.766 19.47 24.766 19.47 24.866 19.519 24.866 19.519 24.916 19.569 24.916 19.569 24.966 19.618 24.966 19.618 25.016 19.667 25.016 19.667 25.116 19.717 25.116 19.717 25.165 19.766 25.165 19.766 25.215 19.815 25.215 19.815 25.315 19.865 25.315 19.865 25.664 19.815 25.664 19.815 25.864 19.766 25.864 19.766 26.063 19.717 26.063 19.717 26.263 19.667 26.263 19.667 26.462 19.618 26.462 19.618 26.662 19.569 26.662 19.569 26.862 19.519 26.862 19.519 26.911 19.47 26.911 19.47 27.011 19.421 27.011 19.421 27.061 19.322 27.061 19.322 27.111 19.026 27.111 19.026 27.061 18.878 27.061 18.878 27.011 18.779 27.011 18.779 26.961 18.681 26.961 18.681 26.911 18.582 26.911 18.582 26.862 18.484 26.862 18.484 26.812 18.434 26.812 18.434 26.762 18.336 26.762 18.336 26.712 18.286 26.712 18.286 26.662 18.188 26.662 18.188 26.612 18.138 26.612 18.138 26.562 18.089 26.562 18.089 26.512 18.04 26.512 18.04 26.462 17.941 26.462 17.941 26.413 17.892 26.413 17.892 26.363 17.842 26.363 17.842 26.313 17.793 26.313 17.793 26.263 17.744 26.263 17.744 26.213 17.694 26.213 17.694 26.163 17.645 26.163 17.645 26.113 17.596 26.113 17.596 26.013 17.546 26.013 17.546 25.964 17.497 25.964 17.497 25.914 17.448 25.914 17.448 25.864 17.398 25.864 17.398 25.764 17.349 25.764 17.349 25.714 17.3 25.714 17.3 25.614 17.25 25.614 17.25 25.564 17.201 25.564 17.201 25.465 17.152 25.465 17.152 25.365 17.103 25.365 17.103 25.315 17.053 25.315 17.053 25.215 17.004 25.215 17.004 25.116 16.955 25.116 16.955 25.016 16.905 25.016 16.905 24.866 16.856 24.866 16.856 24.766 16.807 24.766 16.807 24.617 16.757 24.617 16.757 24.517 16.708 24.517 16.708 24.367 16.659 24.367 16.659 24.168 16.609 24.168 16.609 23.968 16.56 23.968 16.56 23.769 16.511 23.769 16.511 23.519 16.461 23.519 16.461 23.17 16.412 23.17 16.412 22.621 16.363 22.621 16.363 21.773 16.412 21.773 16.412 21.274 16.461 21.274 16.461 20.975 16.511 20.975 16.511 20.725 16.56 20.725 16.56 20.476 16.609 20.476 16.609 20.326 16.659 20.326 16.659 20.127 16.708 20.127 16.708 19.977 16.757 19.977 16.757 19.827 16.807 19.827 16.807 19.678 16.856 19.678 16.856 19.578 16.905 19.578 16.905 19.428 16.955 19.428 16.955 19.328 17.004 19.328 17.004 19.179 17.053 19.179 17.053 19.079 17.103 19.079 17.103 18.979 17.152 18.979 17.152 18.879 17.201 18.879 17.201 18.78 17.25 18.78 17.25 18.68 17.3 18.68 17.3 18.58 17.349 18.58 17.349 18.53 17.398 18.53 17.398 18.43 17.448 18.43 17.448 18.331 17.497 18.331 17.497 18.281 17.546 18.281 17.546 18.181 17.596 18.181 17.596 18.081 17.645 18.081 17.645 18.031 17.694 18.031 17.694 17.932"/>
      </g>
      <g transform="translate(169)">
        <path fill="#FF837D" fill-rule="nonzero" d="M22.4996532,0.000882709358 C21.9354805,0.0171034248 21.2404564,0.00133627467 18.7113973,2.26408654 C18.7113973,2.26408654 3.10071252,15.8665614 1.55035626,17.2036104 C1.3462915e-13,18.5406595 1.3462915e-13,19.9062926 1.3462915e-13,21.2316401 L1.3462915e-13,44.4084141 C1.3462915e-13,46.0421515 1.32580644,47.3684211 2.96127157,47.3684211 L22.5,47.3684211 L42.0387284,47.3675483 C43.6741936,47.3675483 45,46.0412788 45,44.4075413 L45,21.2307674 C45,19.9054198 45,18.5397867 43.4496437,17.2027377 C41.8992875,15.8656887 26.2886027,2.2632138 26.2886027,2.2632138 C23.7590255,-2.13162821e-14 23.0642348,0.0162372439 22.5000001,-2.13162821e-14 L22.4996532,0.000882709358 Z"/>
        <use fill="#BA6561" fill-rule="nonzero" xlink:href="#a"/>
        <mask id="c" fill="white">
          <use xlink:href="#b"/>
        </mask>
        <use fill="#FFFFFF" xlink:href="#b"/>
        <path fill="#B1B5BD" d="M22.634702,21.4312518 L22.634702,24.1756592 L27.0310827,24.1756592 C26.2850302,25.8542772 24.6330569,26.9733559 22.6613468,26.9733559 C19.9702289,26.9733559 17.8919399,24.8950669 17.8919399,22.203949 C17.8919399,19.5128312 19.9702289,17.4345421 22.6613468,17.4345421 C24.5531227,17.4345421 26.0985171,18.4470419 26.897859,19.9657916 L29.9353584,18.3937525 C28.5498324,15.7825688 25.8054251,13.9973718 22.6613468,13.9973718 C18.1050977,13.9973718 14.4547695,17.6743447 14.4547695,22.203949 C14.4547695,26.7335534 18.1050977,30.4105263 22.6613468,30.4105263 C27.1909511,30.4105263 30.867924,26.7335534 30.867924,22.203949 L30.867924,21.4312518 L22.634702,21.4312518 Z" mask="url(#c)"/>
      </g>
      <g transform="translate(82)">
        <path fill="#98DC9A" d="M50.9498003,28.0878932 C52.1030727,26.9346208 52.1029119,25.0652184 50.9498003,23.9121068 L28.0878932,1.0501997 C26.9346208,-0.103072724 25.0652184,-0.102911863 23.9121068,1.0501997 L1.0501997,23.9121068 C-0.103072724,25.0653792 -0.102911863,26.9347816 1.0501997,28.0878932 C1.0501997,28.0878932 18.6282614,45.7045046 19.2777759,46.3154694 C19.9272904,46.9264342 20.386202,46.9010706 21.0504223,46.9010706 L25.9975481,46.9010706 C25.9975481,46.9010706 29.6630659,46.9010699 30.9446738,46.9010706 C32.2262818,46.9010712 32.7369033,46.3007901 32.7369033,46.3007901 C32.7369033,46.3007901 50.9498003,28.0878932 50.9498003,28.0878932 Z"/>
        <path fill="#FFFFFF" d="M25.783195,11.3755089 C25.3986321,11.3898748 25.0129641,11.5434789 24.725647,11.8484771 L11.5499476,25.7468895 C10.9742084,26.3546757 10.9896793,27.300612 11.5941503,27.8741411 L12.7401035,28.9615259 L16.2210607,28.8200775 L28.7359308,15.6311173 C29.310565,15.0233311 29.2519965,14.0773948 28.6475255,13.5038656 L26.840743,11.8020643 C26.5379549,11.5158523 26.1677579,11.3644583 25.783195,11.376614 L25.783195,11.3755089 Z M26.6639324,21.9189416 C26.2782645,21.9333075 25.8959117,22.0891217 25.6063845,22.3919098 L17.2344061,31.1374004 C16.6564567,31.7418714 16.6741377,32.6911229 17.2786087,33.2646521 L18.4245619,34.304519 L21.9055191,34.2094833 L29.6166682,26.1723398 C30.1946176,25.5678688 30.1769366,24.6186173 29.5724656,24.0450882 L27.7214804,22.3432869 C27.4186924,22.0570748 27.0496004,21.9078909 26.6639324,21.9178365 L26.6639324,21.9189416 Z M25.8262926,34.0669298 C25.4527803,34.0669298 25.0593769,34.238215 24.7687446,34.539898 L23.0061647,36.3356299 C22.4249001,36.9389958 22.4425811,37.9435006 23.0061647,38.5568121 L24.01951,39.6917147 L27.4562646,39.7381274 L28.5138126,38.6032249 C29.0950772,37.999859 29.1215987,37.042872 28.5580152,36.4284554 L26.8396379,34.5376878 C26.5578461,34.2304796 26.1998048,34.1155527 25.8262926,34.1122375 L25.8262926,34.0669298 Z"/>
      </g>
      <g transform="translate(2 2)">
        <mask id="e" fill="white">
          <use xlink:href="#d"/>
        </mask>
        <use fill="#9ABEFF" xlink:href="#d"/>
        <rect width="47.072" height="9.77" x="-.888" y="37.007" fill="#000000" fill-opacity=".25" mask="url(#e)"/>
        <path fill="#FFFFFF" d="M12.3482395,12.4370121 C13.6870107,11.1622379 15.5912556,10.7316746 17.3875889,10.6780104 C19.2874173,10.6609279 21.1864958,10.6712607 23.0863242,10.6720107 C23.0938239,12.6761676 23.0944905,14.6810745 23.0855743,16.6851481 C21.857798,16.6829816 20.6291883,16.688148 19.401412,16.6829816 C18.6228648,16.6344838 17.823402,17.2246231 17.6819085,17.9964206 C17.6632427,19.3374417 17.6751588,20.6792127 17.6759088,22.0203171 C19.4766585,22.0277334 21.2774082,22.0180672 23.0780746,22.0248169 C22.9462474,23.9648101 22.7055919,25.8959704 22.4232717,27.8196311 C20.8326789,27.8345471 19.2411695,27.8181312 17.65066,27.8278807 C17.636494,33.5496984 17.6580763,39.271516 17.6394938,44.9933336 C15.2769369,45.0029999 12.9129633,44.9888339 10.5504897,45 C10.5057418,39.2774324 10.5541562,33.5519483 10.5259075,27.8286307 C9.37329435,27.8166313 8.22001457,27.8368803 7.06748475,27.8189645 C7.07190121,25.8953038 7.06898468,23.9717265 7.06965132,22.0487324 C8.22143117,22.0346497 9.37404431,22.0517323 10.5259075,22.0405661 C10.5609059,20.1704863 10.4908258,18.2982399 10.5624058,16.4297433 C10.6779004,14.9499787 11.2418742,13.4591313 12.3482395,12.4370121 L12.3482395,12.4370121 Z"/>
      </g>
      <g transform="translate(82 171)">
        <path fill="#728DBE" d="M43.5629642,13.1986607 L25.9830243,4.26487841 L8.40308445,13.1986607 L8.40308445,29.5888463 C8.40308445,30.4047802 8.99302742,31.3660228 9.72084034,31.7358832 L24.6652684,39.3303498 C25.3930449,39.7001916 26.5687473,39.6980656 27.2949251,39.3237186 L42.1253096,31.6786087 C42.8498524,31.3051046 43.4372104,30.339277 43.4372104,29.5279379 L43.4372104,13.2625664 L43.5629642,13.1986607 Z"/>
        <path fill="#9ABEFF" d="M18.2424169,0.373444615 C17.5154649,0.00402180953 16.3383209,0.00327069079 15.6095271,0.37362948 L0.725717678,7.93729092 C-0.00143520758,8.30681582 -0.000462884567,8.90642818 0.7253539,9.2752741 L8.46125922,13.2065102 L25.9783222,4.3046807 L18.2424169,0.373444615 Z"/>
        <path fill="#9ABEFF" d="M18.2424169 25.9394292C17.5154649 26.308852 16.3383209 26.3096031 15.6095271 25.9392443L.725717678 18.3755829C-.00143520758 18.006058-.000462884567 17.4064456.7253539 17.0375997L8.46125922 13.1063636 25.9783222 22.0081931 18.2424169 25.9394292zM33.7575831.373444615C34.4845351.00402180953 35.6616791.00327069079 36.3904729.37362948L51.2742823 7.93729092C52.0014352 8.30681582 52.0004629 8.90642818 51.2746461 9.2752741L43.5387408 13.2065102 26.0216778 4.3046807 33.7575831.373444615z"/>
        <path fill="#9ABEFF" d="M33.7575831,25.9394292 C34.4845351,26.308852 35.6616791,26.3096031 36.3904729,25.9392443 L51.2742823,18.3755829 C52.0014352,18.006058 52.0004629,17.4064456 51.2746461,17.0375997 L43.5387408,13.1063636 L26.0216778,22.0081931 L33.7575831,25.9394292 Z"/>
      </g>
      <g transform="translate(168 169)">
        <path fill="#9ABEFF" d="M7.64358261,28.6325051 L7.64358261,42.4185516 L37.5957237,42.4185516 C39.120528,42.4185516 40.9595673,41.3310285 41.7054859,39.9856175 L47.9998435,28.6325051 L7.64358261,28.6325051 Z"/>
        <path fill="#98DC9A" d="M15.6170498,-5.30232559e-05 L0.816431374,26.2098266 C0.0608631716,27.547835 0.0513159133,29.7200282 0.797259982,31.0654392 L7.09183238,42.4185516 L25.5327019,10.0772819 L15.6170498,-5.30232559e-05 Z"/>
        <path fill="#F9DE81" d="M15.6170498,-5.30232559e-05 L31.9448759,28.6325051 L47.4480933,28.6325051 L32.6477136,2.42262548 C31.8921576,1.08461709 30.0441013,-5.30232559e-05 28.5200475,-5.30232559e-05 L15.6170498,-5.30232559e-05 Z"/>
      </g>
      <g transform="translate(253 167)">
        <mask id="g" fill="white">
          <use xlink:href="#f"/>
        </mask>
        <use fill="#B1B5BD" xlink:href="#f"/>
        <g mask="url(#g)">
          <g transform="translate(-1.48 -2.664)">
            <polygon fill="#9ABEFF" points="2.825 47.172 23.389 27.1 46.026 48.35 3.022 48.371"/>
            <polygon fill="#98DC9A" points="1.518 1.936 1.232 46.072 46.73 1.511"/>
            <polygon fill="#B1B5BD" points="47.669 3.203 25.46 25.412 48.026 48.538"/>
            <polygon fill="#F9DE81" fill-rule="nonzero" points="4.462 48.87 48.87 4.462 44.683 .275 .275 44.683"/>
            <polygon fill="#F9DE81" fill-rule="nonzero" points="23.959 29.33 44.683 50.054 48.87 45.867 28.146 25.143"/>
          </g>
        </g>
        <path fill="#FF837D" d="M20.2777484,37.4752788 C21.3415587,38.7136137 23.0761276,38.721587 24.1334633,37.4712918 C24.1334633,37.4712918 34.1308329,26.5073437 34.1308329,19.9203067 C34.1308328,13.3332696 28.7909842,7.99342105 22.2039472,7.99342105 C15.6169101,7.99342105 10.2770616,13.3332696 10.2770616,19.9203067 C10.2770617,26.5073437 20.2777484,37.4752788 20.2777484,37.4752788 Z"/>
        <path fill="#FFFFFF" d="M22.3386494,19.0628308 L22.3386494,21.8072381 L26.7350301,21.8072381 C25.9889776,23.4858562 24.3370042,24.6049349 22.3652941,24.6049349 C19.6741763,24.6049349 17.5958872,22.5266458 17.5958872,19.835528 C17.5958872,17.1444101 19.6741763,15.0661211 22.3652941,15.0661211 C24.2570701,15.0661211 25.8024645,16.0786209 26.6018064,17.5973706 L29.6393058,16.0253314 C28.2537797,13.4141477 25.5093724,11.6289507 22.3652941,11.6289507 C17.8090451,11.6289507 14.1587169,15.3059237 14.1587169,19.835528 C14.1587169,24.3651323 17.8090451,28.0421052 22.3652941,28.0421052 C26.8948984,28.0421052 30.5718714,24.3651323 30.5718714,19.835528 L30.5718714,19.0628308 L22.3386494,19.0628308 Z"/>
      </g>
      <g transform="translate(3 166)">
        <path fill="#9ABEFF" d="M0.00408860737,22.5619193 C0.23759975,10.0615372 10.4438009,0 23,0 C35.7025492,0 46,10.2974508 46,23 C46,35.2621588 36.404186,45.2830952 24.3121698,45.9631972 C24.1630002,45.9874124 24.0099166,46 23.8538758,46 L2.83748224,46 C1.27038407,46 0,44.731183 0,43.1608384 L0,22.7157048 C0,22.66411 0.00137439733,22.6128366 0.00408860737,22.5619193 L0.00408860737,22.5619193 Z"/>
        <polygon fill="#FFFFFF" points="21.308 18.457 12.494 27.789 20.515 23.388 24.706 27.789 33.47 18.457 25.538 22.781 21.308 18.457"/>
      </g>
    </g>
    <path stroke="#979797" stroke-linecap="square" stroke-width="10" d="M49.5 90L89 90M308 90L350 90"/>
    <path stroke="#000000" stroke-linecap="round" stroke-width="10" d="M134,33 L205.228,33 L264,33"/>
    <rect width="399" height="790" fill="url(#h)" opacity=".163" rx="22"/>
  </g>
</svg>
